<?xml version="1.0" encoding="UTF-8"?><svg xmlns="http://www.w3.org/2000/svg" viewBox="0 0 26.65 138.73"><defs><style>.d{fill:#fff;}</style></defs><g id="a"/><g id="b"><g id="c"><path class="d" d="M18.75,5.31c-1.93-1.93-4.46-3.05-7.17-2.14-2.61,.87-4.07,3.57-4.95,6-1.07,2.94-1.35,6.29-1.34,9.4,.02,2.79,.03,6,1.35,8.54,.33,.64,2.13,2.3,.23,2-1.22-.2-2.14-2.11-2.52-3.13-.98-2.63-1.14-5.88-1.11-8.65,.07-5.11,.83-12.56,5.42-15.7,5.29-3.62,11.46-.67,14.62,4.23,.59-.77,.69-3.34,2.46-2.19,1.27,.82,.86,3.77,.81,5.05-.09,1.9,.25,7.47-3.26,5.37-1.13-.67-2.18-1.66-3.1-2.58-1.21-1.2-2.56-2.21-3.57-3.6-1-1.38,.28-1.9,1.5-1.19,.31,.18,2.74,2.18,2.91,2.02,.44-.44-1.91-3.04-2.26-3.42-.25-.25,.37,.4,0,0Z"/><g><path class="d" d="M.95,130.49c.2-.19,.46-.29,.78-.29h6.53c.3,0,.54,.09,.72,.26s.26,.41,.26,.7-.09,.51-.26,.69c-.18,.18-.42,.27-.72,.27h-3.53l2.52,1.37c.26,.14,.44,.28,.55,.43,.11,.15,.16,.33,.16,.54s-.05,.39-.16,.54c-.11,.15-.29,.3-.55,.43l-2.45,1.36h3.46c.3,0,.53,.09,.71,.27,.18,.18,.27,.41,.27,.7s-.09,.51-.26,.69-.42,.27-.72,.27H1.73c-.32,0-.58-.1-.78-.29-.2-.2-.3-.45-.3-.75,0-.22,.06-.41,.19-.59,.12-.18,.3-.32,.53-.44l4.15-2.21-4.15-2.2c-.48-.25-.72-.58-.72-1.01,0-.3,.1-.55,.3-.74Z"/><path class="d" d="M8.89,127.52c-.25,.49-.61,.87-1.07,1.14s-1.01,.4-1.63,.4-1.17-.13-1.63-.4-.81-.65-1.06-1.13c-.25-.49-.37-1.06-.37-1.72s.12-1.23,.37-1.72,.6-.87,1.06-1.13c.46-.27,1-.4,1.63-.4s1.17,.13,1.63,.4c.46,.27,.82,.65,1.07,1.13s.38,1.06,.38,1.72-.13,1.22-.38,1.71Zm-2.71-2.85c-.99,0-1.49,.38-1.49,1.14s.5,1.14,1.49,1.14,1.49-.38,1.49-1.14-.5-1.14-1.49-1.14Z"/><path class="d" d="M3.75,116.05c.42-.34,1.06-.52,1.91-.52h2.59c.3,0,.54,.1,.72,.29s.26,.45,.26,.78-.09,.59-.26,.78-.42,.29-.72,.29h-2.5c-.35,0-.61,.06-.77,.19-.16,.12-.24,.31-.24,.56,0,.32,.1,.57,.31,.76s.48,.28,.82,.28h2.38c.3,0,.54,.1,.72,.29,.18,.19,.26,.45,.26,.78s-.09,.59-.26,.78-.42,.29-.72,.29H4.1c-.28,0-.51-.1-.69-.3-.18-.2-.27-.46-.27-.78,0-.3,.08-.55,.25-.73,.17-.18,.39-.27,.66-.27-.3-.21-.54-.48-.7-.8-.16-.33-.24-.69-.24-1.09,0-.7,.21-1.23,.63-1.57Z"/><path class="d" d="M7.63,104.59c.14-.17,.36-.25,.65-.25,.59,0,.89,.35,.89,1.04v4.16c0,.7-.3,1.04-.89,1.04-.29,0-.5-.08-.65-.25-.14-.17-.22-.43-.22-.79v-.97H3.08l.56,.96c.08,.14,.12,.28,.12,.42,0,.22-.1,.42-.29,.58-.2,.16-.41,.24-.65,.24-.33,0-.58-.14-.74-.42l-1.12-1.92c-.2-.35-.3-.68-.3-1s.1-.58,.29-.77c.19-.2,.45-.29,.78-.29H7.42v-.98c0-.36,.07-.62,.22-.79Z"/><path class="d" d="M8.16,103.12c-.74,.55-1.82,.83-3.23,.83s-2.47-.28-3.22-.83c-.74-.55-1.12-1.35-1.12-2.4s.37-1.84,1.12-2.39c.74-.56,1.82-.83,3.22-.83s2.48,.28,3.23,.83c.74,.55,1.12,1.35,1.12,2.4s-.37,1.85-1.12,2.4Zm-1.18-3.23c-.42-.17-1.1-.25-2.05-.25s-1.62,.08-2.04,.25c-.42,.17-.62,.44-.62,.83s.21,.66,.62,.83,1.09,.25,2.05,.25,1.64-.08,2.05-.25,.62-.44,.62-.83-.21-.66-.62-.83Z"/><path class="d" d="M3.7,87.46c.39-.35,1.04-.53,1.96-.53h2.59c.33,0,.57,.1,.74,.31,.16,.2,.25,.46,.25,.76s-.08,.56-.25,.76-.41,.31-.74,.31h-2.64c-.32,0-.54,.06-.67,.17-.13,.11-.19,.28-.19,.49,0,.28,.1,.5,.3,.67,.2,.17,.48,.25,.83,.25h2.38c.33,0,.57,.1,.74,.3,.16,.2,.25,.46,.25,.77s-.08,.56-.25,.76c-.16,.2-.41,.31-.74,.31h-2.64c-.32,0-.54,.06-.67,.17-.13,.11-.19,.28-.19,.49,0,.28,.1,.5,.3,.67s.48,.25,.83,.25h2.38c.33,0,.57,.1,.74,.31s.25,.46,.25,.76-.08,.56-.25,.76c-.16,.2-.41,.31-.74,.31H4.1c-.31,0-.55-.11-.71-.32s-.25-.47-.25-.76c0-.28,.07-.51,.22-.7,.15-.19,.36-.29,.64-.29-.59-.39-.89-.99-.89-1.8,0-.86,.35-1.43,1.04-1.72-.32-.2-.57-.47-.76-.8-.19-.34-.28-.72-.28-1.14,0-.65,.19-1.15,.58-1.5Z"/><path class="d" d="M8.99,85.43c-.16,.2-.41,.31-.74,.31H1.64c-.33,0-.58-.1-.74-.31-.17-.2-.25-.46-.25-.76s.08-.56,.25-.76,.42-.31,.74-.31h6.61c.33,0,.57,.1,.74,.31s.25,.46,.25,.76-.08,.56-.25,.76Z"/><path class="d" d="M3.51,73.67c.26-.4,.63-.7,1.1-.92,.47-.22,1.01-.33,1.62-.33s1.14,.11,1.6,.33c.46,.22,.81,.53,1.06,.92,.25,.39,.37,.84,.37,1.36,0,.38-.08,.72-.23,1.04-.15,.32-.36,.56-.61,.74h2.04c.28,0,.5,.1,.67,.29,.17,.19,.25,.44,.25,.76,0,.33-.09,.59-.27,.79-.18,.2-.41,.3-.69,.3H4.13c-.3,0-.53-.09-.71-.28-.18-.19-.27-.44-.27-.76s.08-.55,.24-.74,.37-.29,.64-.32c-.28-.17-.5-.41-.66-.74-.16-.32-.24-.68-.24-1.07,0-.5,.13-.95,.39-1.35Zm3.79,1.15c-.25-.2-.6-.29-1.07-.29-.49,0-.86,.1-1.12,.3-.26,.2-.39,.48-.39,.85s.13,.65,.38,.85c.26,.2,.62,.3,1.1,.3s.83-.1,1.09-.3c.25-.2,.38-.49,.38-.86s-.12-.65-.37-.85Z"/><path class="d" d="M3.33,67.04c.15-.16,.37-.24,.65-.24,.32,0,.55,.07,.7,.22,.14,.15,.24,.41,.28,.8l.04,.36c.05,.4,.17,.69,.38,.86,.2,.17,.48,.26,.83,.26h2.05c.33,0,.57,.1,.74,.31s.25,.46,.25,.76-.08,.56-.25,.76c-.16,.2-.41,.31-.74,.31H4.1c-.3,0-.54-.1-.71-.31-.17-.2-.25-.45-.25-.74s.08-.53,.24-.71c.16-.18,.38-.27,.67-.27h.23c-.35-.13-.62-.34-.82-.63-.19-.29-.3-.6-.31-.92v-.17c-.04-.27,.03-.49,.17-.65Z"/><path class="d" d="M2.56,63.79c0,.15-.05,.28-.16,.38-.1,.1-.22,.16-.36,.16-.13,0-.25-.04-.36-.13l-1.22-.89c-.15-.11-.27-.24-.34-.38-.08-.14-.11-.28-.11-.43,0-.23,.08-.44,.25-.61s.36-.26,.58-.26c.28,0,.52,.15,.72,.44l.89,1.36c.08,.11,.12,.23,.12,.36Zm4.93-2.51c.14-.12,.33-.17,.56-.17,.32,0,.56,.16,.73,.47,.14,.27,.25,.59,.34,.97,.09,.37,.14,.71,.14,1.03,0,.66-.12,1.23-.37,1.72-.25,.49-.6,.86-1.07,1.13-.46,.26-1.01,.4-1.63,.4-.59,0-1.12-.13-1.59-.38s-.83-.6-1.09-1.06c-.26-.45-.39-.96-.39-1.53s.12-1.04,.36-1.45c.24-.42,.58-.74,1.02-.97,.44-.23,.96-.34,1.55-.34,.18,0,.33,.04,.43,.13,.1,.08,.15,.21,.15,.37v3.17c.38-.06,.66-.18,.83-.37,.17-.19,.25-.48,.25-.85,0-.2-.02-.38-.07-.55s-.11-.36-.19-.56c-.05-.12-.09-.24-.13-.35-.04-.12-.05-.22-.05-.32,0-.18,.07-.33,.22-.45Zm-2.66,3.17c.18,.17,.44,.27,.79,.3v-1.88c-.7,.05-1.06,.35-1.06,.91,0,.28,.09,.5,.27,.67Z"/><path class="d" d="M2.5,57.35c.16,.12,.36,.17,.62,.17h.14v-.66c0-.64,.26-.96,.78-.96s.79,.32,.79,.96v.66h3.4c.33,0,.58,.1,.74,.31,.17,.2,.25,.46,.25,.76s-.08,.56-.25,.76c-.17,.2-.42,.31-.74,.31h-3.4v.35c0,.64-.26,.96-.79,.96s-.78-.32-.78-.96v-.35c-.77-.02-1.37-.25-1.81-.69-.44-.44-.68-1.05-.74-1.81l-.02-.31c0-.06-.01-.15-.01-.25,0-.34,.06-.59,.19-.74s.31-.23,.55-.23,.43,.07,.56,.22c.13,.14,.21,.34,.22,.59l.02,.31c.02,.29,.11,.49,.27,.61Z"/><path class="d" d="M2.56,52.77c0,.15-.05,.28-.16,.38-.1,.1-.22,.16-.36,.16-.13,0-.25-.04-.36-.13l-1.22-.89c-.15-.11-.27-.24-.34-.38-.08-.14-.11-.28-.11-.43,0-.23,.08-.44,.25-.61s.36-.26,.58-.26c.28,0,.52,.15,.72,.44l.89,1.36c.08,.11,.12,.23,.12,.36Zm4.93-2.51c.14-.12,.33-.17,.56-.17,.32,0,.56,.16,.73,.47,.14,.27,.25,.59,.34,.97,.09,.37,.14,.71,.14,1.03,0,.66-.12,1.23-.37,1.72-.25,.49-.6,.86-1.07,1.13-.46,.26-1.01,.4-1.63,.4-.59,0-1.12-.13-1.59-.38s-.83-.6-1.09-1.06c-.26-.45-.39-.96-.39-1.53s.12-1.04,.36-1.45c.24-.42,.58-.74,1.02-.97,.44-.23,.96-.34,1.55-.34,.18,0,.33,.04,.43,.13,.1,.08,.15,.21,.15,.37v3.17c.38-.06,.66-.18,.83-.37,.17-.19,.25-.48,.25-.85,0-.2-.02-.38-.07-.55s-.11-.36-.19-.56c-.05-.12-.09-.24-.13-.35-.04-.12-.05-.22-.05-.32,0-.18,.07-.33,.22-.45Zm-2.66,3.17c.18,.17,.44,.27,.79,.3v-1.88c-.7,.05-1.06,.35-1.06,.91,0,.28,.09,.5,.27,.67Z"/><path class="d" d="M3.33,44.7c.15-.16,.37-.24,.65-.24,.32,0,.55,.07,.7,.22,.14,.15,.24,.41,.28,.8l.04,.36c.05,.4,.17,.69,.38,.86,.2,.17,.48,.26,.83,.26h2.05c.33,0,.57,.1,.74,.31s.25,.46,.25,.76-.08,.56-.25,.76c-.16,.2-.41,.31-.74,.31H4.1c-.3,0-.54-.1-.71-.31-.17-.2-.25-.45-.25-.74s.08-.53,.24-.71c.16-.18,.38-.27,.67-.27h.23c-.35-.13-.62-.34-.82-.63-.19-.29-.3-.6-.31-.92v-.17c-.04-.27,.03-.49,.17-.65Z"/><path class="d" d="M2.56,41.44c0,.15-.05,.28-.16,.38-.1,.1-.22,.16-.36,.16-.13,0-.25-.04-.36-.13l-1.22-.89c-.15-.11-.27-.24-.34-.38-.08-.14-.11-.28-.11-.43,0-.23,.08-.44,.25-.61s.36-.26,.58-.26c.28,0,.52,.15,.72,.44l.89,1.36c.08,.11,.12,.23,.12,.36Zm4.93-2.51c.14-.12,.33-.17,.56-.17,.32,0,.56,.16,.73,.47,.14,.27,.25,.59,.34,.97,.09,.37,.14,.71,.14,1.03,0,.66-.12,1.23-.37,1.72-.25,.49-.6,.86-1.07,1.13-.46,.26-1.01,.4-1.63,.4-.59,0-1.12-.13-1.59-.38s-.83-.6-1.09-1.06c-.26-.45-.39-.96-.39-1.53s.12-1.04,.36-1.45c.24-.42,.58-.74,1.02-.97,.44-.23,.96-.34,1.55-.34,.18,0,.33,.04,.43,.13,.1,.08,.15,.21,.15,.37v3.17c.38-.06,.66-.18,.83-.37,.17-.19,.25-.48,.25-.85,0-.2-.02-.38-.07-.55s-.11-.36-.19-.56c-.05-.12-.09-.24-.13-.35-.04-.12-.05-.22-.05-.32,0-.18,.07-.33,.22-.45Zm-2.66,3.17c.18,.17,.44,.27,.79,.3v-1.88c-.7,.05-1.06,.35-1.06,.91,0,.28,.09,.5,.27,.67Z"/></g></g></g></svg>