<?xml version="1.0" encoding="UTF-8"?><svg xmlns="http://www.w3.org/2000/svg" xmlns:xlink="http://www.w3.org/1999/xlink" viewBox="0 0 272.54 277.61"><defs><style>.bs{clip-path:url(#bh);}.bt{clip-path:url(#al);}.bu{clip-path:url(#av);}.bv{clip-path:url(#bm);}.bw{clip-path:url(#ac);}.bx{clip-path:url(#l);}.by{clip-path:url(#ak);}.c`{clip-path:url(#h);}.ca{clip-path:url(#au);}.cb{clip-path:url(#br);}.cc{clip-path:url(#bf);}.cd{clip-path:url(#ar);}.ce{clip-path:url(#ah);}.cf{clip-path:url(#as);}.cg{clip-path:url(#ag);}.ch{clip-path:url(#at);}.ci{clip-path:url(#bg);}.cj{clip-path:url(#x);}.ck{clip-path:url(#be);}.cl{clip-path:url(#bn);}.cm{clip-path:url(#ax);}.cn{fill:#fff;opacity:.5;}.co{clip-path:url(#aa);}.cp{clip-path:url(#aj);}.cq{clip-path:url(#n);}.cr{clip-path:url(#bj);}.cs{clip-path:url(#bp);}.ct{clip-path:url(#a`);}.cu{clip-path:url(#ab);}.cv{clip-path:url(#u);}.cw{clip-path:url(#o);}.cx{clip-path:url(#ba);}.cy{clip-path:url(#bi);}.d`{clip-path:url(#aw);}.da{clip-path:url(#m);}.db{clip-path:url(#bo);}.dc{clip-path:url(#bk);}.dd{clip-path:url(#ae);}.de{clip-path:url(#t);}.df{clip-path:url(#bd);}.dg{clip-path:url(#e);}.dh{clip-path:url(#w);}.di{clip-path:url(#ai);}.dj{clip-path:url(#af);}.dk{clip-path:url(#d);}.dl{clip-path:url(#v);}.dm{clip-path:url(#bq);}.dn{fill:none;}.do{clip-path:url(#p);}.dp{clip-path:url(#b`);}.dq{clip-path:url(#ao);}.dr{clip-path:url(#bl);}.ds{clip-path:url(#an);}.dt{clip-path:url(#f);}.du{clip-path:url(#j);}.dv{clip-path:url(#q);}.dw{clip-path:url(#y);}.dx{clip-path:url(#bb);}.dy{clip-path:url(#s);}.e`{clip-path:url(#bc);}.ea{clip-path:url(#aq);}.eb{clip-path:url(#r);}.ec{clip-path:url(#i);}.ed{clip-path:url(#k);}.ee{clip-path:url(#ap);}.ef{clip-path:url(#g);}.eg{clip-path:url(#am);}.eh{clip-path:url(#ad);}.ei{clip-path:url(#ay);}</style><clipPath id="d"><rect class="dn" x="12.77" y="22.65" width="240.85" height="240.85"/></clipPath><clipPath id="e"><rect class="dn" x="223.85" y="4.9" width="43.79" height="24.35"/></clipPath><clipPath id="f"><rect class="dn" x="223.85" y="29.25" width="43.79" height="24.35"/></clipPath><clipPath id="g"><rect class="dn" x="223.85" y="53.59" width="43.79" height="24.35"/></clipPath><clipPath id="h"><rect class="dn" x="223.85" y="77.94" width="43.79" height="24.35"/></clipPath><clipPath id="i"><rect class="dn" x="223.85" y="102.29" width="43.79" height="24.35"/></clipPath><clipPath id="j"><rect class="dn" x="223.85" y="126.63" width="43.79" height="24.35"/></clipPath><clipPath id="k"><rect class="dn" x="223.85" y="150.98" width="43.79" height="24.35"/></clipPath><clipPath id="l"><rect class="dn" x="223.85" y="175.32" width="43.79" height="24.35"/></clipPath><clipPath id="m"><rect class="dn" x="223.85" y="199.67" width="43.79" height="24.35"/></clipPath><clipPath id="n"><rect class="dn" x="223.85" y="224.02" width="43.79" height="24.35"/></clipPath><clipPath id="o"><rect class="dn" x="223.85" y="248.36" width="43.79" height="24.35"/></clipPath><clipPath id="p"><rect class="dn" x="180.06" y="4.9" width="43.79" height="24.35"/></clipPath><clipPath id="q"><rect class="dn" x="180.06" y="29.25" width="43.79" height="24.35"/></clipPath><clipPath id="r"><rect class="dn" x="180.06" y="53.59" width="43.79" height="24.35"/></clipPath><clipPath id="s"><rect class="dn" x="180.06" y="77.94" width="43.79" height="24.35"/></clipPath><clipPath id="t"><rect class="dn" x="180.06" y="102.29" width="43.79" height="24.35"/></clipPath><clipPath id="u"><rect class="dn" x="180.06" y="126.63" width="43.79" height="24.35"/></clipPath><clipPath id="v"><rect class="dn" x="180.06" y="150.98" width="43.79" height="24.35"/></clipPath><clipPath id="w"><rect class="dn" x="180.06" y="175.32" width="43.79" height="24.35"/></clipPath><clipPath id="x"><rect class="dn" x="180.06" y="199.67" width="43.79" height="24.35"/></clipPath><clipPath id="y"><rect class="dn" x="180.06" y="224.02" width="43.79" height="24.35"/></clipPath><clipPath id="a`"><rect class="dn" x="180.06" y="248.36" width="43.79" height="24.35"/></clipPath><clipPath id="aa"><rect class="dn" x="136.27" y="4.9" width="43.79" height="24.35"/></clipPath><clipPath id="ab"><rect class="dn" x="136.27" y="29.25" width="43.79" height="24.35"/></clipPath><clipPath id="ac"><rect class="dn" x="136.27" y="53.59" width="43.79" height="24.35"/></clipPath><clipPath id="ad"><rect class="dn" x="136.27" y="77.94" width="43.79" height="24.35"/></clipPath><clipPath id="ae"><rect class="dn" x="136.27" y="102.29" width="43.79" height="24.35"/></clipPath><clipPath id="af"><rect class="dn" x="136.27" y="126.63" width="43.79" height="24.35"/></clipPath><clipPath id="ag"><rect class="dn" x="136.27" y="150.98" width="43.79" height="24.35"/></clipPath><clipPath id="ah"><rect class="dn" x="136.27" y="175.32" width="43.79" height="24.35"/></clipPath><clipPath id="ai"><rect class="dn" x="136.27" y="199.67" width="43.79" height="24.35"/></clipPath><clipPath id="aj"><rect class="dn" x="136.27" y="224.02" width="43.79" height="24.35"/></clipPath><clipPath id="ak"><rect class="dn" x="136.27" y="248.36" width="43.79" height="24.35"/></clipPath><clipPath id="al"><rect class="dn" x="92.48" y="4.9" width="43.79" height="24.35"/></clipPath><clipPath id="am"><rect class="dn" x="92.48" y="29.25" width="43.79" height="24.35"/></clipPath><clipPath id="an"><rect class="dn" x="92.48" y="53.59" width="43.79" height="24.35"/></clipPath><clipPath id="ao"><rect class="dn" x="92.48" y="77.94" width="43.79" height="24.35"/></clipPath><clipPath id="ap"><rect class="dn" x="92.48" y="102.29" width="43.79" height="24.35"/></clipPath><clipPath id="aq"><rect class="dn" x="92.48" y="126.63" width="43.79" height="24.35"/></clipPath><clipPath id="ar"><rect class="dn" x="92.48" y="150.98" width="43.79" height="24.35"/></clipPath><clipPath id="as"><rect class="dn" x="92.48" y="175.32" width="43.79" height="24.35"/></clipPath><clipPath id="at"><rect class="dn" x="92.48" y="199.67" width="43.79" height="24.35"/></clipPath><clipPath id="au"><rect class="dn" x="92.48" y="224.02" width="43.79" height="24.35"/></clipPath><clipPath id="av"><rect class="dn" x="92.48" y="248.36" width="43.79" height="24.35"/></clipPath><clipPath id="aw"><rect class="dn" x="48.69" y="4.9" width="43.79" height="24.35"/></clipPath><clipPath id="ax"><rect class="dn" x="48.69" y="29.25" width="43.79" height="24.35"/></clipPath><clipPath id="ay"><rect class="dn" x="48.69" y="53.59" width="43.79" height="24.35"/></clipPath><clipPath id="b`"><rect class="dn" x="48.69" y="77.94" width="43.79" height="24.35"/></clipPath><clipPath id="ba"><rect class="dn" x="48.69" y="102.29" width="43.79" height="24.35"/></clipPath><clipPath id="bb"><rect class="dn" x="48.69" y="126.63" width="43.79" height="24.35"/></clipPath><clipPath id="bc"><rect class="dn" x="48.69" y="150.98" width="43.79" height="24.35"/></clipPath><clipPath id="bd"><rect class="dn" x="48.69" y="175.32" width="43.79" height="24.35"/></clipPath><clipPath id="be"><rect class="dn" x="48.69" y="199.67" width="43.79" height="24.35"/></clipPath><clipPath id="bf"><rect class="dn" x="48.69" y="224.02" width="43.79" height="24.35"/></clipPath><clipPath id="bg"><rect class="dn" x="48.69" y="248.36" width="43.79" height="24.35"/></clipPath><clipPath id="bh"><rect class="dn" x="4.9" y="4.9" width="43.79" height="24.35"/></clipPath><clipPath id="bi"><rect class="dn" x="4.9" y="29.25" width="43.79" height="24.35"/></clipPath><clipPath id="bj"><rect class="dn" x="4.9" y="53.59" width="43.79" height="24.35"/></clipPath><clipPath id="bk"><rect class="dn" x="4.9" y="77.94" width="43.79" height="24.35"/></clipPath><clipPath id="bl"><rect class="dn" x="4.9" y="102.29" width="43.79" height="24.35"/></clipPath><clipPath id="bm"><rect class="dn" x="4.9" y="126.63" width="43.79" height="24.35"/></clipPath><clipPath id="bn"><rect class="dn" x="4.9" y="150.98" width="43.79" height="24.35"/></clipPath><clipPath id="bo"><rect class="dn" x="4.9" y="175.32" width="43.79" height="24.35"/></clipPath><clipPath id="bp"><rect class="dn" x="4.9" y="199.67" width="43.79" height="24.35"/></clipPath><clipPath id="bq"><rect class="dn" x="4.9" y="224.02" width="43.79" height="24.35"/></clipPath><clipPath id="br"><rect class="dn" x="4.9" y="248.36" width="43.79" height="24.35"/></clipPath></defs><g id="a"/><g id="b"><g id="c"><g class="dk"><g class="dg"><path class="cn" d="M262.74,24.35s2.45,7.41,3.82,8.78c1.37,1.37,3.59,1.37,4.96,0,1.37-1.37,1.37-3.59,0-4.96-1.37-1.37-8.78-3.82-8.78-3.82Z"/><path class="cn" d="M218.95,24.35s2.45,7.41,3.82,8.78c1.37,1.37,3.59,1.37,4.96,0,1.37-1.37,1.37-3.59,0-4.96-1.37-1.37-8.78-3.82-8.78-3.82Z"/><path class="cn" d="M262.74,0s2.45,7.41,3.82,8.78c1.37,1.37,3.59,1.37,4.96,0,1.37-1.37,1.37-3.59,0-4.96-1.37-1.37-8.78-3.82-8.78-3.82Z"/><path class="cn" d="M240.84,12.17s2.45,7.41,3.82,8.78c1.37,1.37,3.59,1.37,4.96,0,1.37-1.37,1.37-3.59,0-4.96-1.37-1.37-8.78-3.82-8.78-3.82Z"/><path class="cn" d="M218.95,0s2.45,7.41,3.82,8.78c1.37,1.37,3.59,1.37,4.96,0,1.37-1.37,1.37-3.59,0-4.96-1.37-1.37-8.78-3.82-8.78-3.82Z"/></g><g class="dt"><path class="cn" d="M262.74,48.69s2.45,7.41,3.82,8.78c1.37,1.37,3.59,1.37,4.96,0,1.37-1.37,1.37-3.59,0-4.96-1.37-1.37-8.78-3.82-8.78-3.82Z"/><path class="cn" d="M218.95,48.69s2.45,7.41,3.82,8.78c1.37,1.37,3.59,1.37,4.96,0,1.37-1.37,1.37-3.59,0-4.96-1.37-1.37-8.78-3.82-8.78-3.82Z"/><path class="cn" d="M262.74,24.35s2.45,7.41,3.82,8.78c1.37,1.37,3.59,1.37,4.96,0,1.37-1.37,1.37-3.59,0-4.96-1.37-1.37-8.78-3.82-8.78-3.82Z"/><path class="cn" d="M240.84,36.52s2.45,7.41,3.82,8.78c1.37,1.37,3.59,1.37,4.96,0,1.37-1.37,1.37-3.59,0-4.96-1.37-1.37-8.78-3.82-8.78-3.82Z"/><path class="cn" d="M218.95,24.35s2.45,7.41,3.82,8.78c1.37,1.37,3.59,1.37,4.96,0,1.37-1.37,1.37-3.59,0-4.96-1.37-1.37-8.78-3.82-8.78-3.82Z"/></g><g class="ef"><path class="cn" d="M262.74,73.04s2.45,7.41,3.82,8.78c1.37,1.37,3.59,1.37,4.96,0,1.37-1.37,1.37-3.59,0-4.96-1.37-1.37-8.78-3.82-8.78-3.82Z"/><path class="cn" d="M218.95,73.04s2.45,7.41,3.82,8.78c1.37,1.37,3.59,1.37,4.96,0,1.37-1.37,1.37-3.59,0-4.96-1.37-1.37-8.78-3.82-8.78-3.82Z"/><path class="cn" d="M262.74,48.69s2.45,7.41,3.82,8.78c1.37,1.37,3.59,1.37,4.96,0,1.37-1.37,1.37-3.59,0-4.96-1.37-1.37-8.78-3.82-8.78-3.82Z"/><path class="cn" d="M240.84,60.87s2.45,7.41,3.82,8.78c1.37,1.37,3.59,1.37,4.96,0,1.37-1.37,1.37-3.59,0-4.96-1.37-1.37-8.78-3.82-8.78-3.82Z"/><path class="cn" d="M218.95,48.69s2.45,7.41,3.82,8.78c1.37,1.37,3.59,1.37,4.96,0,1.37-1.37,1.37-3.59,0-4.96-1.37-1.37-8.78-3.82-8.78-3.82Z"/></g><g class="c`"><path class="cn" d="M262.74,97.38s2.45,7.41,3.82,8.78c1.37,1.37,3.59,1.37,4.96,0,1.37-1.37,1.37-3.59,0-4.96-1.37-1.37-8.78-3.82-8.78-3.82Z"/><path class="cn" d="M218.95,97.38s2.45,7.41,3.82,8.78c1.37,1.37,3.59,1.37,4.96,0,1.37-1.37,1.37-3.59,0-4.96-1.37-1.37-8.78-3.82-8.78-3.82Z"/><path class="cn" d="M262.74,73.04s2.45,7.41,3.82,8.78c1.37,1.37,3.59,1.37,4.96,0,1.37-1.37,1.37-3.59,0-4.96-1.37-1.37-8.78-3.82-8.78-3.82Z"/><path class="cn" d="M240.84,85.21s2.45,7.41,3.82,8.78c1.37,1.37,3.59,1.37,4.96,0,1.37-1.37,1.37-3.59,0-4.96-1.37-1.37-8.78-3.82-8.78-3.82Z"/><path class="cn" d="M218.95,73.04s2.45,7.41,3.82,8.78c1.37,1.37,3.59,1.37,4.96,0,1.37-1.37,1.37-3.59,0-4.96-1.37-1.37-8.78-3.82-8.78-3.82Z"/></g><g class="ec"><path class="cn" d="M262.74,121.73s2.45,7.41,3.82,8.78c1.37,1.37,3.59,1.37,4.96,0,1.37-1.37,1.37-3.59,0-4.96-1.37-1.37-8.78-3.82-8.78-3.82Z"/><path class="cn" d="M218.95,121.73s2.45,7.41,3.82,8.78c1.37,1.37,3.59,1.37,4.96,0,1.37-1.37,1.37-3.59,0-4.96-1.37-1.37-8.78-3.82-8.78-3.82Z"/><path class="cn" d="M262.74,97.38s2.45,7.41,3.82,8.78c1.37,1.37,3.59,1.37,4.96,0,1.37-1.37,1.37-3.59,0-4.96-1.37-1.37-8.78-3.82-8.78-3.82Z"/><path class="cn" d="M240.84,109.56s2.45,7.41,3.82,8.78c1.37,1.37,3.59,1.37,4.96,0,1.37-1.37,1.37-3.59,0-4.96-1.37-1.37-8.78-3.82-8.78-3.82Z"/><path class="cn" d="M218.95,97.38s2.45,7.41,3.82,8.78c1.37,1.37,3.59,1.37,4.96,0,1.37-1.37,1.37-3.59,0-4.96-1.37-1.37-8.78-3.82-8.78-3.82Z"/></g><g class="du"><path class="cn" d="M262.74,146.08s2.45,7.41,3.82,8.78c1.37,1.37,3.59,1.37,4.96,0,1.37-1.37,1.37-3.59,0-4.96-1.37-1.37-8.78-3.82-8.78-3.82Z"/><path class="cn" d="M218.95,146.08s2.45,7.41,3.82,8.78c1.37,1.37,3.59,1.37,4.96,0,1.37-1.37,1.37-3.59,0-4.96-1.37-1.37-8.78-3.82-8.78-3.82Z"/><path class="cn" d="M262.74,121.73s2.45,7.41,3.82,8.78c1.37,1.37,3.59,1.37,4.96,0,1.37-1.37,1.37-3.59,0-4.96-1.37-1.37-8.78-3.82-8.78-3.82Z"/><path class="cn" d="M240.84,133.9s2.45,7.41,3.82,8.78c1.37,1.37,3.59,1.37,4.96,0,1.37-1.37,1.37-3.59,0-4.96-1.37-1.37-8.78-3.82-8.78-3.82Z"/><path class="cn" d="M218.95,121.73s2.45,7.41,3.82,8.78c1.37,1.37,3.59,1.37,4.96,0,1.37-1.37,1.37-3.59,0-4.96-1.37-1.37-8.78-3.82-8.78-3.82Z"/></g><g class="ed"><path class="cn" d="M262.74,170.42s2.45,7.41,3.82,8.78c1.37,1.37,3.59,1.37,4.96,0,1.37-1.37,1.37-3.59,0-4.96-1.37-1.37-8.78-3.82-8.78-3.82Z"/><path class="cn" d="M218.95,170.42s2.45,7.41,3.82,8.78c1.37,1.37,3.59,1.37,4.96,0,1.37-1.37,1.37-3.59,0-4.96-1.37-1.37-8.78-3.82-8.78-3.82Z"/><path class="cn" d="M262.74,146.08s2.45,7.41,3.82,8.78c1.37,1.37,3.59,1.37,4.96,0,1.37-1.37,1.37-3.59,0-4.96-1.37-1.37-8.78-3.82-8.78-3.82Z"/><path class="cn" d="M240.84,158.25s2.45,7.41,3.82,8.78c1.37,1.37,3.59,1.37,4.96,0,1.37-1.37,1.37-3.59,0-4.96-1.37-1.37-8.78-3.82-8.78-3.82Z"/><path class="cn" d="M218.95,146.08s2.45,7.41,3.82,8.78c1.37,1.37,3.59,1.37,4.96,0,1.37-1.37,1.37-3.59,0-4.96-1.37-1.37-8.78-3.82-8.78-3.82Z"/></g><g class="bx"><path class="cn" d="M262.74,194.77s2.45,7.41,3.82,8.78c1.37,1.37,3.59,1.37,4.96,0,1.37-1.37,1.37-3.59,0-4.96-1.37-1.37-8.78-3.82-8.78-3.82Z"/><path class="cn" d="M218.95,194.77s2.45,7.41,3.82,8.78c1.37,1.37,3.59,1.37,4.96,0,1.37-1.37,1.37-3.59,0-4.96-1.37-1.37-8.78-3.82-8.78-3.82Z"/><path class="cn" d="M262.74,170.42s2.45,7.41,3.82,8.78c1.37,1.37,3.59,1.37,4.96,0,1.37-1.37,1.37-3.59,0-4.96-1.37-1.37-8.78-3.82-8.78-3.82Z"/><path class="cn" d="M240.84,182.6s2.45,7.41,3.82,8.78c1.37,1.37,3.59,1.37,4.96,0,1.37-1.37,1.37-3.59,0-4.96-1.37-1.37-8.78-3.82-8.78-3.82Z"/><path class="cn" d="M218.95,170.42s2.45,7.41,3.82,8.78c1.37,1.37,3.59,1.37,4.96,0,1.37-1.37,1.37-3.59,0-4.96-1.37-1.37-8.78-3.82-8.78-3.82Z"/></g><g class="da"><path class="cn" d="M262.74,219.12s2.45,7.41,3.82,8.78c1.37,1.37,3.59,1.37,4.96,0,1.37-1.37,1.37-3.59,0-4.96-1.37-1.37-8.78-3.82-8.78-3.82Z"/><path class="cn" d="M218.95,219.12s2.45,7.41,3.82,8.78c1.37,1.37,3.59,1.37,4.96,0,1.37-1.37,1.37-3.59,0-4.96-1.37-1.37-8.78-3.82-8.78-3.82Z"/><path class="cn" d="M262.74,194.77s2.45,7.41,3.82,8.78c1.37,1.37,3.59,1.37,4.96,0,1.37-1.37,1.37-3.59,0-4.96-1.37-1.37-8.78-3.82-8.78-3.82Z"/><path class="cn" d="M240.84,206.94s2.45,7.41,3.82,8.78c1.37,1.37,3.59,1.37,4.96,0,1.37-1.37,1.37-3.59,0-4.96-1.37-1.37-8.78-3.82-8.78-3.82Z"/><path class="cn" d="M218.95,194.77s2.45,7.41,3.82,8.78c1.37,1.37,3.59,1.37,4.96,0,1.37-1.37,1.37-3.59,0-4.96-1.37-1.37-8.78-3.82-8.78-3.82Z"/></g><g class="cq"><path class="cn" d="M262.74,243.46s2.45,7.41,3.82,8.78c1.37,1.37,3.59,1.37,4.96,0,1.37-1.37,1.37-3.59,0-4.96-1.37-1.37-8.78-3.82-8.78-3.82Z"/><path class="cn" d="M218.95,243.46s2.45,7.41,3.82,8.78c1.37,1.37,3.59,1.37,4.96,0,1.37-1.37,1.37-3.59,0-4.96-1.37-1.37-8.78-3.82-8.78-3.82Z"/><path class="cn" d="M262.74,219.12s2.45,7.41,3.82,8.78c1.37,1.37,3.59,1.37,4.96,0,1.37-1.37,1.37-3.59,0-4.96-1.37-1.37-8.78-3.82-8.78-3.82Z"/><path class="cn" d="M240.84,231.29s2.45,7.41,3.82,8.78c1.37,1.37,3.59,1.37,4.96,0,1.37-1.37,1.37-3.59,0-4.96-1.37-1.37-8.78-3.82-8.78-3.82Z"/><path class="cn" d="M218.95,219.12s2.45,7.41,3.82,8.78c1.37,1.37,3.59,1.37,4.96,0,1.37-1.37,1.37-3.59,0-4.96-1.37-1.37-8.78-3.82-8.78-3.82Z"/></g><g class="cw"><path class="cn" d="M262.74,267.81s2.45,7.41,3.82,8.78c1.37,1.37,3.59,1.37,4.96,0,1.37-1.37,1.37-3.59,0-4.96-1.37-1.37-8.78-3.82-8.78-3.82Z"/><path class="cn" d="M218.95,267.81s2.45,7.41,3.82,8.78c1.37,1.37,3.59,1.37,4.96,0,1.37-1.37,1.37-3.59,0-4.96-1.37-1.37-8.78-3.82-8.78-3.82Z"/><path class="cn" d="M262.74,243.46s2.45,7.41,3.82,8.78c1.37,1.37,3.59,1.37,4.96,0,1.37-1.37,1.37-3.59,0-4.96-1.37-1.37-8.78-3.82-8.78-3.82Z"/><path class="cn" d="M240.84,255.63s2.45,7.41,3.82,8.78c1.37,1.37,3.59,1.37,4.96,0,1.37-1.37,1.37-3.59,0-4.96-1.37-1.37-8.78-3.82-8.78-3.82Z"/><path class="cn" d="M218.95,243.46s2.45,7.41,3.82,8.78c1.37,1.37,3.59,1.37,4.96,0,1.37-1.37,1.37-3.59,0-4.96-1.37-1.37-8.78-3.82-8.78-3.82Z"/></g><g class="do"><path class="cn" d="M218.95,24.35s2.45,7.41,3.82,8.78c1.37,1.37,3.59,1.37,4.96,0,1.37-1.37,1.37-3.59,0-4.96-1.37-1.37-8.78-3.82-8.78-3.82Z"/><path class="cn" d="M175.16,24.35s2.45,7.41,3.82,8.78c1.37,1.37,3.59,1.37,4.96,0,1.37-1.37,1.37-3.59,0-4.96-1.37-1.37-8.78-3.82-8.78-3.82Z"/><path class="cn" d="M218.95,0s2.45,7.41,3.82,8.78c1.37,1.37,3.59,1.37,4.96,0,1.37-1.37,1.37-3.59,0-4.96-1.37-1.37-8.78-3.82-8.78-3.82Z"/><path class="cn" d="M197.05,12.17s2.45,7.41,3.82,8.78c1.37,1.37,3.59,1.37,4.96,0,1.37-1.37,1.37-3.59,0-4.96-1.37-1.37-8.78-3.82-8.78-3.82Z"/><path class="cn" d="M175.16,0s2.45,7.41,3.82,8.78c1.37,1.37,3.59,1.37,4.96,0,1.37-1.37,1.37-3.59,0-4.96-1.37-1.37-8.78-3.82-8.78-3.82Z"/></g><g class="dv"><path class="cn" d="M218.95,48.69s2.45,7.41,3.82,8.78c1.37,1.37,3.59,1.37,4.96,0,1.37-1.37,1.37-3.59,0-4.96-1.37-1.37-8.78-3.82-8.78-3.82Z"/><path class="cn" d="M175.16,48.69s2.45,7.41,3.82,8.78c1.37,1.37,3.59,1.37,4.96,0,1.37-1.37,1.37-3.59,0-4.96-1.37-1.37-8.78-3.82-8.78-3.82Z"/><path class="cn" d="M218.95,24.35s2.45,7.41,3.82,8.78c1.37,1.37,3.59,1.37,4.96,0,1.37-1.37,1.37-3.59,0-4.96-1.37-1.37-8.78-3.82-8.78-3.82Z"/><path class="cn" d="M197.05,36.52s2.45,7.41,3.82,8.78c1.37,1.37,3.59,1.37,4.96,0,1.37-1.37,1.37-3.59,0-4.96-1.37-1.37-8.78-3.82-8.78-3.82Z"/><path class="cn" d="M175.16,24.35s2.45,7.41,3.82,8.78c1.37,1.37,3.59,1.37,4.96,0,1.37-1.37,1.37-3.59,0-4.96-1.37-1.37-8.78-3.82-8.78-3.82Z"/></g><g class="eb"><path class="cn" d="M218.95,73.04s2.45,7.41,3.82,8.78c1.37,1.37,3.59,1.37,4.96,0,1.37-1.37,1.37-3.59,0-4.96-1.37-1.37-8.78-3.82-8.78-3.82Z"/><path class="cn" d="M175.16,73.04s2.45,7.41,3.82,8.78c1.37,1.37,3.59,1.37,4.96,0,1.37-1.37,1.37-3.59,0-4.96-1.37-1.37-8.78-3.82-8.78-3.82Z"/><path class="cn" d="M218.95,48.69s2.45,7.41,3.82,8.78c1.37,1.37,3.59,1.37,4.96,0,1.37-1.37,1.37-3.59,0-4.96-1.37-1.37-8.78-3.82-8.78-3.82Z"/><path class="cn" d="M197.05,60.87s2.45,7.41,3.82,8.78c1.37,1.37,3.59,1.37,4.96,0,1.37-1.37,1.37-3.59,0-4.96-1.37-1.37-8.78-3.82-8.78-3.82Z"/><path class="cn" d="M175.16,48.69s2.45,7.41,3.82,8.78c1.37,1.37,3.59,1.37,4.96,0,1.37-1.37,1.37-3.59,0-4.96-1.37-1.37-8.78-3.82-8.78-3.82Z"/></g><g class="dy"><path class="cn" d="M218.95,97.38s2.45,7.41,3.82,8.78c1.37,1.37,3.59,1.37,4.96,0,1.37-1.37,1.37-3.59,0-4.96-1.37-1.37-8.78-3.82-8.78-3.82Z"/><path class="cn" d="M175.16,97.38s2.45,7.41,3.82,8.78c1.37,1.37,3.59,1.37,4.96,0,1.37-1.37,1.37-3.59,0-4.96-1.37-1.37-8.78-3.82-8.78-3.82Z"/><path class="cn" d="M218.95,73.04s2.45,7.41,3.82,8.78c1.37,1.37,3.59,1.37,4.96,0,1.37-1.37,1.37-3.59,0-4.96-1.37-1.37-8.78-3.82-8.78-3.82Z"/><path class="cn" d="M197.05,85.21s2.45,7.41,3.82,8.78c1.37,1.37,3.59,1.37,4.96,0,1.37-1.37,1.37-3.59,0-4.96-1.37-1.37-8.78-3.82-8.78-3.82Z"/><path class="cn" d="M175.16,73.04s2.45,7.41,3.82,8.78c1.37,1.37,3.59,1.37,4.96,0,1.37-1.37,1.37-3.59,0-4.96-1.37-1.37-8.78-3.82-8.78-3.82Z"/></g><g class="de"><path class="cn" d="M218.95,121.73s2.45,7.41,3.82,8.78c1.37,1.37,3.59,1.37,4.96,0,1.37-1.37,1.37-3.59,0-4.96-1.37-1.37-8.78-3.82-8.78-3.82Z"/><path class="cn" d="M175.16,121.73s2.45,7.41,3.82,8.78c1.37,1.37,3.59,1.37,4.96,0,1.37-1.37,1.37-3.59,0-4.96-1.37-1.37-8.78-3.82-8.78-3.82Z"/><path class="cn" d="M218.95,97.38s2.45,7.41,3.82,8.78c1.37,1.37,3.59,1.37,4.96,0,1.37-1.37,1.37-3.59,0-4.96-1.37-1.37-8.78-3.82-8.78-3.82Z"/><path class="cn" d="M197.05,109.56s2.45,7.41,3.82,8.78c1.37,1.37,3.59,1.37,4.96,0,1.37-1.37,1.37-3.59,0-4.96-1.37-1.37-8.78-3.82-8.78-3.82Z"/><path class="cn" d="M175.16,97.38s2.45,7.41,3.82,8.78c1.37,1.37,3.59,1.37,4.96,0,1.37-1.37,1.37-3.59,0-4.96-1.37-1.37-8.78-3.82-8.78-3.82Z"/></g><g class="cv"><path class="cn" d="M218.95,146.08s2.45,7.41,3.82,8.78c1.37,1.37,3.59,1.37,4.96,0,1.37-1.37,1.37-3.59,0-4.96-1.37-1.37-8.78-3.82-8.78-3.82Z"/><path class="cn" d="M175.16,146.08s2.45,7.41,3.82,8.78c1.37,1.37,3.59,1.37,4.96,0,1.37-1.37,1.37-3.59,0-4.96-1.37-1.37-8.78-3.82-8.78-3.82Z"/><path class="cn" d="M218.95,121.73s2.45,7.41,3.82,8.78c1.37,1.37,3.59,1.37,4.96,0,1.37-1.37,1.37-3.59,0-4.96-1.37-1.37-8.78-3.82-8.78-3.82Z"/><path class="cn" d="M197.05,133.9s2.45,7.41,3.82,8.78c1.37,1.37,3.59,1.37,4.96,0,1.37-1.37,1.37-3.59,0-4.96-1.37-1.37-8.78-3.82-8.78-3.82Z"/><path class="cn" d="M175.16,121.73s2.45,7.41,3.82,8.78c1.37,1.37,3.59,1.37,4.96,0,1.37-1.37,1.37-3.59,0-4.96-1.37-1.37-8.78-3.82-8.78-3.82Z"/></g><g class="dl"><path class="cn" d="M218.95,170.42s2.45,7.41,3.82,8.78c1.37,1.37,3.59,1.37,4.96,0,1.37-1.37,1.37-3.59,0-4.96-1.37-1.37-8.78-3.82-8.78-3.82Z"/><path class="cn" d="M175.16,170.42s2.45,7.41,3.82,8.78c1.37,1.37,3.59,1.37,4.96,0,1.37-1.37,1.37-3.59,0-4.96-1.37-1.37-8.78-3.82-8.78-3.82Z"/><path class="cn" d="M218.95,146.08s2.45,7.41,3.82,8.78c1.37,1.37,3.59,1.37,4.96,0,1.37-1.37,1.37-3.59,0-4.96-1.37-1.37-8.78-3.82-8.78-3.82Z"/><path class="cn" d="M197.05,158.25s2.45,7.41,3.82,8.78c1.37,1.37,3.59,1.37,4.96,0,1.37-1.37,1.37-3.59,0-4.96-1.37-1.37-8.78-3.82-8.78-3.82Z"/><path class="cn" d="M175.16,146.08s2.45,7.41,3.82,8.78c1.37,1.37,3.59,1.37,4.96,0,1.37-1.37,1.37-3.59,0-4.96-1.37-1.37-8.78-3.82-8.78-3.82Z"/></g><g class="dh"><path class="cn" d="M218.95,194.77s2.45,7.41,3.82,8.78c1.37,1.37,3.59,1.37,4.96,0,1.37-1.37,1.37-3.59,0-4.96-1.37-1.37-8.78-3.82-8.78-3.82Z"/><path class="cn" d="M175.16,194.77s2.45,7.41,3.82,8.78c1.37,1.37,3.59,1.37,4.96,0,1.37-1.37,1.37-3.59,0-4.96-1.37-1.37-8.78-3.82-8.78-3.82Z"/><path class="cn" d="M218.95,170.42s2.45,7.41,3.82,8.78c1.37,1.37,3.59,1.37,4.96,0,1.37-1.37,1.37-3.59,0-4.96-1.37-1.37-8.78-3.82-8.78-3.82Z"/><path class="cn" d="M197.05,182.6s2.45,7.41,3.82,8.78c1.37,1.37,3.59,1.37,4.96,0,1.37-1.37,1.37-3.59,0-4.96-1.37-1.37-8.78-3.82-8.78-3.82Z"/><path class="cn" d="M175.16,170.42s2.45,7.41,3.82,8.78c1.37,1.37,3.59,1.37,4.96,0,1.37-1.37,1.37-3.59,0-4.96-1.37-1.37-8.78-3.82-8.78-3.82Z"/></g><g class="cj"><path class="cn" d="M218.95,219.12s2.45,7.41,3.82,8.78c1.37,1.37,3.59,1.37,4.96,0,1.37-1.37,1.37-3.59,0-4.96-1.37-1.37-8.78-3.82-8.78-3.82Z"/><path class="cn" d="M175.16,219.12s2.45,7.41,3.82,8.78c1.37,1.37,3.59,1.37,4.96,0,1.37-1.37,1.37-3.59,0-4.96-1.37-1.37-8.78-3.82-8.78-3.82Z"/><path class="cn" d="M218.95,194.77s2.45,7.41,3.82,8.78c1.37,1.37,3.59,1.37,4.96,0,1.37-1.37,1.37-3.59,0-4.96-1.37-1.37-8.78-3.82-8.78-3.82Z"/><path class="cn" d="M197.05,206.94s2.45,7.41,3.82,8.78c1.37,1.37,3.59,1.37,4.96,0,1.37-1.37,1.37-3.59,0-4.96-1.37-1.37-8.78-3.82-8.78-3.82Z"/><path class="cn" d="M175.16,194.77s2.45,7.41,3.82,8.78c1.37,1.37,3.59,1.37,4.96,0,1.37-1.37,1.37-3.59,0-4.96-1.37-1.37-8.78-3.82-8.78-3.82Z"/></g><g class="dw"><path class="cn" d="M218.95,243.46s2.45,7.41,3.82,8.78c1.37,1.37,3.59,1.37,4.96,0,1.37-1.37,1.37-3.59,0-4.96-1.37-1.37-8.78-3.82-8.78-3.82Z"/><path class="cn" d="M175.16,243.46s2.45,7.41,3.82,8.78c1.37,1.37,3.59,1.37,4.96,0,1.37-1.37,1.37-3.59,0-4.96-1.37-1.37-8.78-3.82-8.78-3.82Z"/><path class="cn" d="M218.95,219.12s2.45,7.41,3.82,8.78c1.37,1.37,3.59,1.37,4.96,0,1.37-1.37,1.37-3.59,0-4.96-1.37-1.37-8.78-3.82-8.78-3.82Z"/><path class="cn" d="M197.05,231.29s2.45,7.41,3.82,8.78c1.37,1.37,3.59,1.37,4.96,0,1.37-1.37,1.37-3.59,0-4.96-1.37-1.37-8.78-3.82-8.78-3.82Z"/><path class="cn" d="M175.16,219.12s2.45,7.41,3.82,8.78c1.37,1.37,3.59,1.37,4.96,0,1.37-1.37,1.37-3.59,0-4.96-1.37-1.37-8.78-3.82-8.78-3.82Z"/></g><g class="ct"><path class="cn" d="M218.95,267.81s2.45,7.41,3.82,8.78c1.37,1.37,3.59,1.37,4.96,0,1.37-1.37,1.37-3.59,0-4.96-1.37-1.37-8.78-3.82-8.78-3.82Z"/><path class="cn" d="M175.16,267.81s2.45,7.41,3.82,8.78c1.37,1.37,3.59,1.37,4.96,0,1.37-1.37,1.37-3.59,0-4.96-1.37-1.37-8.78-3.82-8.78-3.82Z"/><path class="cn" d="M218.95,243.46s2.45,7.41,3.82,8.78c1.37,1.37,3.59,1.37,4.96,0,1.37-1.37,1.37-3.59,0-4.96-1.37-1.37-8.78-3.82-8.78-3.82Z"/><path class="cn" d="M197.05,255.63s2.45,7.41,3.82,8.78c1.37,1.37,3.59,1.37,4.96,0,1.37-1.37,1.37-3.59,0-4.96-1.37-1.37-8.78-3.82-8.78-3.82Z"/><path class="cn" d="M175.16,243.46s2.45,7.41,3.82,8.78c1.37,1.37,3.59,1.37,4.96,0,1.37-1.37,1.37-3.59,0-4.96-1.37-1.37-8.78-3.82-8.78-3.82Z"/></g><g class="co"><path class="cn" d="M175.16,24.35s2.45,7.41,3.82,8.78c1.37,1.37,3.59,1.37,4.96,0,1.37-1.37,1.37-3.59,0-4.96-1.37-1.37-8.78-3.82-8.78-3.82Z"/><path class="cn" d="M131.37,24.35s2.45,7.41,3.82,8.78c1.37,1.37,3.59,1.37,4.96,0,1.37-1.37,1.37-3.59,0-4.96-1.37-1.37-8.78-3.82-8.78-3.82Z"/><path class="cn" d="M175.16,0s2.45,7.41,3.82,8.78c1.37,1.37,3.59,1.37,4.96,0,1.37-1.37,1.37-3.59,0-4.96-1.37-1.37-8.78-3.82-8.78-3.82Z"/><path class="cn" d="M153.26,12.17s2.45,7.41,3.82,8.78c1.37,1.37,3.59,1.37,4.96,0,1.37-1.37,1.37-3.59,0-4.96-1.37-1.37-8.78-3.82-8.78-3.82Z"/><path class="cn" d="M131.37,0s2.45,7.41,3.82,8.78c1.37,1.37,3.59,1.37,4.96,0,1.37-1.37,1.37-3.59,0-4.96-1.37-1.37-8.78-3.82-8.78-3.82Z"/></g><g class="cu"><path class="cn" d="M175.16,48.69s2.45,7.41,3.82,8.78c1.37,1.37,3.59,1.37,4.96,0,1.37-1.37,1.37-3.59,0-4.96-1.37-1.37-8.78-3.82-8.78-3.82Z"/><path class="cn" d="M131.37,48.69s2.45,7.41,3.82,8.78c1.37,1.37,3.59,1.37,4.96,0,1.37-1.37,1.37-3.59,0-4.96-1.37-1.37-8.78-3.82-8.78-3.82Z"/><path class="cn" d="M175.16,24.35s2.45,7.41,3.82,8.78c1.37,1.37,3.59,1.37,4.96,0,1.37-1.37,1.37-3.59,0-4.96-1.37-1.37-8.78-3.82-8.78-3.82Z"/><path class="cn" d="M153.26,36.52s2.45,7.41,3.82,8.78c1.37,1.37,3.59,1.37,4.96,0,1.37-1.37,1.37-3.59,0-4.96-1.37-1.37-8.78-3.82-8.78-3.82Z"/><path class="cn" d="M131.37,24.35s2.45,7.41,3.82,8.78c1.37,1.37,3.59,1.37,4.96,0,1.37-1.37,1.37-3.59,0-4.96-1.37-1.37-8.78-3.82-8.78-3.82Z"/></g><g class="bw"><path class="cn" d="M175.16,73.04s2.45,7.41,3.82,8.78c1.37,1.37,3.59,1.37,4.96,0,1.37-1.37,1.37-3.59,0-4.96-1.37-1.37-8.78-3.82-8.78-3.82Z"/><path class="cn" d="M131.37,73.04s2.45,7.41,3.82,8.78c1.37,1.37,3.59,1.37,4.96,0,1.37-1.37,1.37-3.59,0-4.96-1.37-1.37-8.78-3.82-8.78-3.82Z"/><path class="cn" d="M175.16,48.69s2.45,7.41,3.82,8.78c1.37,1.37,3.59,1.37,4.96,0,1.37-1.37,1.37-3.59,0-4.96-1.37-1.37-8.78-3.82-8.78-3.82Z"/><path class="cn" d="M153.26,60.87s2.45,7.41,3.82,8.78c1.37,1.37,3.59,1.37,4.96,0,1.37-1.37,1.37-3.59,0-4.96-1.37-1.37-8.78-3.82-8.78-3.82Z"/><path class="cn" d="M131.37,48.69s2.45,7.41,3.82,8.78c1.37,1.37,3.59,1.37,4.96,0,1.37-1.37,1.37-3.59,0-4.96-1.37-1.37-8.78-3.82-8.78-3.82Z"/></g><g class="eh"><path class="cn" d="M175.16,97.38s2.45,7.41,3.82,8.78c1.37,1.37,3.59,1.37,4.96,0,1.37-1.37,1.37-3.59,0-4.96-1.37-1.37-8.78-3.82-8.78-3.82Z"/><path class="cn" d="M131.37,97.38s2.45,7.41,3.82,8.78c1.37,1.37,3.59,1.37,4.96,0,1.37-1.37,1.37-3.59,0-4.96-1.37-1.37-8.78-3.82-8.78-3.82Z"/><path class="cn" d="M175.16,73.04s2.45,7.41,3.82,8.78c1.37,1.37,3.59,1.37,4.96,0,1.37-1.37,1.37-3.59,0-4.96-1.37-1.37-8.78-3.82-8.78-3.82Z"/><path class="cn" d="M153.26,85.21s2.45,7.41,3.82,8.78c1.37,1.37,3.59,1.37,4.96,0,1.37-1.37,1.37-3.59,0-4.96-1.37-1.37-8.78-3.82-8.78-3.82Z"/><path class="cn" d="M131.37,73.04s2.45,7.41,3.82,8.78c1.37,1.37,3.59,1.37,4.96,0,1.37-1.37,1.37-3.59,0-4.96-1.37-1.37-8.78-3.82-8.78-3.82Z"/></g><g class="dd"><path class="cn" d="M175.16,121.73s2.45,7.41,3.82,8.78c1.37,1.37,3.59,1.37,4.96,0,1.37-1.37,1.37-3.59,0-4.96-1.37-1.37-8.78-3.82-8.78-3.82Z"/><path class="cn" d="M131.37,121.73s2.45,7.41,3.82,8.78c1.37,1.37,3.59,1.37,4.96,0,1.37-1.37,1.37-3.59,0-4.96-1.37-1.37-8.78-3.82-8.78-3.82Z"/><path class="cn" d="M175.16,97.38s2.45,7.41,3.82,8.78c1.37,1.37,3.59,1.37,4.96,0,1.37-1.37,1.37-3.59,0-4.96-1.37-1.37-8.78-3.82-8.78-3.82Z"/><path class="cn" d="M153.26,109.56s2.45,7.41,3.82,8.78c1.37,1.37,3.59,1.37,4.96,0,1.37-1.37,1.37-3.59,0-4.96-1.37-1.37-8.78-3.82-8.78-3.82Z"/><path class="cn" d="M131.37,97.38s2.45,7.41,3.82,8.78c1.37,1.37,3.59,1.37,4.96,0,1.37-1.37,1.37-3.59,0-4.96-1.37-1.37-8.78-3.82-8.78-3.82Z"/></g><g class="dj"><path class="cn" d="M175.16,146.08s2.45,7.41,3.82,8.78c1.37,1.37,3.59,1.37,4.96,0,1.37-1.37,1.37-3.59,0-4.96-1.37-1.37-8.78-3.82-8.78-3.82Z"/><path class="cn" d="M131.37,146.08s2.45,7.41,3.82,8.78c1.37,1.37,3.59,1.37,4.96,0,1.37-1.37,1.37-3.59,0-4.96-1.37-1.37-8.78-3.82-8.78-3.82Z"/><path class="cn" d="M175.16,121.73s2.45,7.41,3.82,8.78c1.37,1.37,3.59,1.37,4.96,0,1.37-1.37,1.37-3.59,0-4.96-1.37-1.37-8.78-3.82-8.78-3.82Z"/><path class="cn" d="M153.26,133.9s2.45,7.41,3.82,8.78c1.37,1.37,3.59,1.37,4.96,0,1.37-1.37,1.37-3.59,0-4.96-1.37-1.37-8.78-3.82-8.78-3.82Z"/><path class="cn" d="M131.37,121.73s2.45,7.41,3.82,8.78c1.37,1.37,3.59,1.37,4.96,0,1.37-1.37,1.37-3.59,0-4.96-1.37-1.37-8.78-3.82-8.78-3.82Z"/></g><g class="cg"><path class="cn" d="M175.16,170.42s2.45,7.41,3.82,8.78c1.37,1.37,3.59,1.37,4.96,0,1.37-1.37,1.37-3.59,0-4.96-1.37-1.37-8.78-3.82-8.78-3.82Z"/><path class="cn" d="M131.37,170.42s2.45,7.41,3.82,8.78c1.37,1.37,3.59,1.37,4.96,0,1.37-1.37,1.37-3.59,0-4.96-1.37-1.37-8.78-3.82-8.78-3.82Z"/><path class="cn" d="M175.16,146.08s2.45,7.41,3.82,8.78c1.37,1.37,3.59,1.37,4.96,0,1.37-1.37,1.37-3.59,0-4.96-1.37-1.37-8.78-3.82-8.78-3.82Z"/><path class="cn" d="M153.26,158.25s2.45,7.41,3.82,8.78c1.37,1.37,3.59,1.37,4.96,0,1.37-1.37,1.37-3.59,0-4.96-1.37-1.37-8.78-3.82-8.78-3.82Z"/><path class="cn" d="M131.37,146.08s2.45,7.41,3.82,8.78c1.37,1.37,3.59,1.37,4.96,0,1.37-1.37,1.37-3.59,0-4.96-1.37-1.37-8.78-3.82-8.78-3.82Z"/></g><g class="ce"><path class="cn" d="M175.16,194.77s2.45,7.41,3.82,8.78c1.37,1.37,3.59,1.37,4.96,0,1.37-1.37,1.37-3.59,0-4.96-1.37-1.37-8.78-3.82-8.78-3.82Z"/><path class="cn" d="M131.37,194.77s2.45,7.41,3.82,8.78c1.37,1.37,3.59,1.37,4.96,0,1.37-1.37,1.37-3.59,0-4.96-1.37-1.37-8.78-3.82-8.78-3.82Z"/><path class="cn" d="M175.16,170.42s2.45,7.41,3.82,8.78c1.37,1.37,3.59,1.37,4.96,0,1.37-1.37,1.37-3.59,0-4.96-1.37-1.37-8.78-3.82-8.78-3.82Z"/><path class="cn" d="M153.26,182.6s2.45,7.41,3.82,8.78c1.37,1.37,3.59,1.37,4.96,0,1.37-1.37,1.37-3.59,0-4.96-1.37-1.37-8.78-3.82-8.78-3.82Z"/><path class="cn" d="M131.37,170.42s2.45,7.41,3.82,8.78c1.37,1.37,3.59,1.37,4.96,0,1.37-1.37,1.37-3.59,0-4.96-1.37-1.37-8.78-3.82-8.78-3.82Z"/></g><g class="di"><path class="cn" d="M175.16,219.12s2.45,7.41,3.82,8.78c1.37,1.37,3.59,1.37,4.96,0,1.37-1.37,1.37-3.59,0-4.96-1.37-1.37-8.78-3.82-8.78-3.82Z"/><path class="cn" d="M131.37,219.12s2.45,7.41,3.82,8.78c1.37,1.37,3.59,1.37,4.96,0,1.37-1.37,1.37-3.59,0-4.96-1.37-1.37-8.78-3.82-8.78-3.82Z"/><path class="cn" d="M175.16,194.77s2.45,7.41,3.82,8.78c1.37,1.37,3.59,1.37,4.96,0,1.37-1.37,1.37-3.59,0-4.96-1.37-1.37-8.78-3.82-8.78-3.82Z"/><path class="cn" d="M153.26,206.94s2.45,7.41,3.82,8.78c1.37,1.37,3.59,1.37,4.96,0,1.37-1.37,1.37-3.59,0-4.96-1.37-1.37-8.78-3.82-8.78-3.82Z"/><path class="cn" d="M131.37,194.77s2.45,7.41,3.82,8.78c1.37,1.37,3.59,1.37,4.96,0,1.37-1.37,1.37-3.59,0-4.96-1.37-1.37-8.78-3.82-8.78-3.82Z"/></g><g class="cp"><path class="cn" d="M175.16,243.46s2.45,7.41,3.82,8.78c1.37,1.37,3.59,1.37,4.96,0,1.37-1.37,1.37-3.59,0-4.96-1.37-1.37-8.78-3.82-8.78-3.82Z"/><path class="cn" d="M131.37,243.46s2.45,7.41,3.82,8.78c1.37,1.37,3.59,1.37,4.96,0,1.37-1.37,1.37-3.59,0-4.96-1.37-1.37-8.78-3.82-8.78-3.82Z"/><path class="cn" d="M175.16,219.12s2.45,7.41,3.82,8.78c1.37,1.37,3.59,1.37,4.96,0,1.37-1.37,1.37-3.59,0-4.96-1.37-1.37-8.78-3.82-8.78-3.82Z"/><path class="cn" d="M153.26,231.29s2.45,7.41,3.82,8.78c1.37,1.37,3.59,1.37,4.96,0,1.37-1.37,1.37-3.59,0-4.96-1.37-1.37-8.78-3.82-8.78-3.82Z"/><path class="cn" d="M131.37,219.12s2.45,7.41,3.82,8.78c1.37,1.37,3.59,1.37,4.96,0,1.37-1.37,1.37-3.59,0-4.96-1.37-1.37-8.78-3.82-8.78-3.82Z"/></g><g class="by"><path class="cn" d="M175.16,267.81s2.45,7.41,3.82,8.78c1.37,1.37,3.59,1.37,4.96,0,1.37-1.37,1.37-3.59,0-4.96-1.37-1.37-8.78-3.82-8.78-3.82Z"/><path class="cn" d="M131.37,267.81s2.45,7.41,3.82,8.78c1.37,1.37,3.59,1.37,4.96,0,1.37-1.37,1.37-3.59,0-4.96-1.37-1.37-8.78-3.82-8.78-3.82Z"/><path class="cn" d="M175.16,243.46s2.45,7.41,3.82,8.78c1.37,1.37,3.59,1.37,4.96,0,1.37-1.37,1.37-3.59,0-4.96-1.37-1.37-8.78-3.82-8.78-3.82Z"/><path class="cn" d="M153.26,255.63s2.45,7.41,3.82,8.78c1.37,1.37,3.59,1.37,4.96,0,1.37-1.37,1.37-3.59,0-4.96-1.37-1.37-8.78-3.82-8.78-3.82Z"/><path class="cn" d="M131.37,243.46s2.45,7.41,3.82,8.78c1.37,1.37,3.59,1.37,4.96,0,1.37-1.37,1.37-3.59,0-4.96-1.37-1.37-8.78-3.82-8.78-3.82Z"/></g><g class="bt"><path class="cn" d="M131.37,24.35s2.45,7.41,3.82,8.78c1.37,1.37,3.59,1.37,4.96,0,1.37-1.37,1.37-3.59,0-4.96-1.37-1.37-8.78-3.82-8.78-3.82Z"/><path class="cn" d="M87.58,24.35s2.45,7.41,3.82,8.78c1.37,1.37,3.59,1.37,4.96,0,1.37-1.37,1.37-3.59,0-4.96-1.37-1.37-8.78-3.82-8.78-3.82Z"/><path class="cn" d="M131.37,0s2.45,7.41,3.82,8.78c1.37,1.37,3.59,1.37,4.96,0,1.37-1.37,1.37-3.59,0-4.96-1.37-1.37-8.78-3.82-8.78-3.82Z"/><path class="cn" d="M109.47,12.17s2.45,7.41,3.82,8.78c1.37,1.37,3.59,1.37,4.96,0,1.37-1.37,1.37-3.59,0-4.96-1.37-1.37-8.78-3.82-8.78-3.82Z"/><path class="cn" d="M87.58,0s2.45,7.41,3.82,8.78c1.37,1.37,3.59,1.37,4.96,0,1.37-1.37,1.37-3.59,0-4.96-1.37-1.37-8.78-3.82-8.78-3.82Z"/></g><g class="eg"><path class="cn" d="M131.37,48.69s2.45,7.41,3.82,8.78c1.37,1.37,3.59,1.37,4.96,0,1.37-1.37,1.37-3.59,0-4.96-1.37-1.37-8.78-3.82-8.78-3.82Z"/><path class="cn" d="M87.58,48.69s2.45,7.41,3.82,8.78c1.37,1.37,3.59,1.37,4.96,0,1.37-1.37,1.37-3.59,0-4.96-1.37-1.37-8.78-3.82-8.78-3.82Z"/><path class="cn" d="M131.37,24.35s2.45,7.41,3.82,8.78c1.37,1.37,3.59,1.37,4.96,0,1.37-1.37,1.37-3.59,0-4.96-1.37-1.37-8.78-3.82-8.78-3.82Z"/><path class="cn" d="M109.47,36.52s2.45,7.41,3.82,8.78c1.37,1.37,3.59,1.37,4.96,0,1.37-1.37,1.37-3.59,0-4.96-1.37-1.37-8.78-3.82-8.78-3.82Z"/><path class="cn" d="M87.58,24.35s2.45,7.41,3.82,8.78c1.37,1.37,3.59,1.37,4.96,0,1.37-1.37,1.37-3.59,0-4.96-1.37-1.37-8.78-3.82-8.78-3.82Z"/></g><g class="ds"><path class="cn" d="M131.37,73.04s2.45,7.41,3.82,8.78c1.37,1.37,3.59,1.37,4.96,0,1.37-1.37,1.37-3.59,0-4.96-1.37-1.37-8.78-3.82-8.78-3.82Z"/><path class="cn" d="M87.58,73.04s2.45,7.41,3.82,8.78c1.37,1.37,3.59,1.37,4.96,0,1.37-1.37,1.37-3.59,0-4.96-1.37-1.37-8.78-3.82-8.78-3.82Z"/><path class="cn" d="M131.37,48.69s2.45,7.41,3.82,8.78c1.37,1.37,3.59,1.37,4.96,0,1.37-1.37,1.37-3.59,0-4.96-1.37-1.37-8.78-3.82-8.78-3.82Z"/><path class="cn" d="M109.47,60.87s2.45,7.41,3.82,8.78c1.37,1.37,3.59,1.37,4.96,0,1.37-1.37,1.37-3.59,0-4.96-1.37-1.37-8.78-3.82-8.78-3.82Z"/><path class="cn" d="M87.58,48.69s2.45,7.41,3.82,8.78c1.37,1.37,3.59,1.37,4.96,0,1.37-1.37,1.37-3.59,0-4.96-1.37-1.37-8.78-3.82-8.78-3.82Z"/></g><g class="dq"><path class="cn" d="M131.37,97.38s2.45,7.41,3.82,8.78c1.37,1.37,3.59,1.37,4.96,0,1.37-1.37,1.37-3.59,0-4.96-1.37-1.37-8.78-3.82-8.78-3.82Z"/><path class="cn" d="M87.58,97.38s2.45,7.41,3.82,8.78c1.37,1.37,3.59,1.37,4.96,0,1.37-1.37,1.37-3.59,0-4.96-1.37-1.37-8.78-3.82-8.78-3.82Z"/><path class="cn" d="M131.37,73.04s2.45,7.41,3.82,8.78c1.37,1.37,3.59,1.37,4.96,0,1.37-1.37,1.37-3.59,0-4.96-1.37-1.37-8.78-3.82-8.78-3.82Z"/><path class="cn" d="M109.47,85.21s2.45,7.41,3.82,8.78c1.37,1.37,3.59,1.37,4.96,0,1.37-1.37,1.37-3.59,0-4.96-1.37-1.37-8.78-3.82-8.78-3.82Z"/><path class="cn" d="M87.58,73.04s2.45,7.41,3.82,8.78c1.37,1.37,3.59,1.37,4.96,0,1.37-1.37,1.37-3.59,0-4.96-1.37-1.37-8.78-3.82-8.78-3.82Z"/></g><g class="ee"><path class="cn" d="M131.37,121.73s2.45,7.41,3.82,8.78c1.37,1.37,3.59,1.37,4.96,0,1.37-1.37,1.37-3.59,0-4.96-1.37-1.37-8.78-3.82-8.78-3.82Z"/><path class="cn" d="M87.58,121.73s2.45,7.41,3.82,8.78c1.37,1.37,3.59,1.37,4.96,0,1.37-1.37,1.37-3.59,0-4.96-1.37-1.37-8.78-3.82-8.78-3.82Z"/><path class="cn" d="M131.37,97.38s2.45,7.41,3.82,8.78c1.37,1.37,3.59,1.37,4.96,0,1.37-1.37,1.37-3.59,0-4.96-1.37-1.37-8.78-3.82-8.78-3.82Z"/><path class="cn" d="M109.47,109.56s2.45,7.41,3.82,8.78c1.37,1.37,3.59,1.37,4.96,0,1.37-1.37,1.37-3.59,0-4.96-1.37-1.37-8.78-3.82-8.78-3.82Z"/><path class="cn" d="M87.58,97.38s2.45,7.41,3.82,8.78c1.37,1.37,3.59,1.37,4.96,0,1.37-1.37,1.37-3.59,0-4.96-1.37-1.37-8.78-3.82-8.78-3.82Z"/></g><g class="ea"><path class="cn" d="M131.37,146.08s2.45,7.41,3.82,8.78c1.37,1.37,3.59,1.37,4.96,0,1.37-1.37,1.37-3.59,0-4.96-1.37-1.37-8.78-3.82-8.78-3.82Z"/><path class="cn" d="M87.58,146.08s2.45,7.41,3.82,8.78c1.37,1.37,3.59,1.37,4.96,0,1.37-1.37,1.37-3.59,0-4.96-1.37-1.37-8.78-3.82-8.78-3.82Z"/><path class="cn" d="M131.37,121.73s2.45,7.41,3.82,8.78c1.37,1.37,3.59,1.37,4.96,0,1.37-1.37,1.37-3.59,0-4.96-1.37-1.37-8.78-3.82-8.78-3.82Z"/><path class="cn" d="M109.47,133.9s2.45,7.41,3.82,8.78c1.37,1.37,3.59,1.37,4.96,0,1.37-1.37,1.37-3.59,0-4.96-1.37-1.37-8.78-3.82-8.78-3.82Z"/><path class="cn" d="M87.58,121.73s2.45,7.41,3.82,8.78c1.37,1.37,3.59,1.37,4.96,0,1.37-1.37,1.37-3.59,0-4.96-1.37-1.37-8.78-3.82-8.78-3.82Z"/></g><g class="cd"><path class="cn" d="M131.37,170.42s2.45,7.41,3.82,8.78c1.37,1.37,3.59,1.37,4.96,0,1.37-1.37,1.37-3.59,0-4.96-1.37-1.37-8.78-3.82-8.78-3.82Z"/><path class="cn" d="M87.58,170.42s2.45,7.41,3.82,8.78c1.37,1.37,3.59,1.37,4.96,0,1.37-1.37,1.37-3.59,0-4.96-1.37-1.37-8.78-3.82-8.78-3.82Z"/><path class="cn" d="M131.37,146.08s2.45,7.41,3.82,8.78c1.37,1.37,3.59,1.37,4.96,0,1.37-1.37,1.37-3.59,0-4.96-1.37-1.37-8.78-3.82-8.78-3.82Z"/><path class="cn" d="M109.47,158.25s2.45,7.41,3.82,8.78c1.37,1.37,3.59,1.37,4.96,0,1.37-1.37,1.37-3.59,0-4.96-1.37-1.37-8.78-3.82-8.78-3.82Z"/><path class="cn" d="M87.58,146.08s2.45,7.41,3.82,8.78c1.37,1.37,3.59,1.37,4.96,0,1.37-1.37,1.37-3.59,0-4.96-1.37-1.37-8.78-3.82-8.78-3.82Z"/></g><g class="cf"><path class="cn" d="M131.37,194.77s2.45,7.41,3.82,8.78c1.37,1.37,3.59,1.37,4.96,0,1.37-1.37,1.37-3.59,0-4.96-1.37-1.37-8.78-3.82-8.78-3.82Z"/><path class="cn" d="M87.58,194.77s2.45,7.41,3.82,8.78c1.37,1.37,3.59,1.37,4.96,0,1.37-1.37,1.37-3.59,0-4.96-1.37-1.37-8.78-3.82-8.78-3.82Z"/><path class="cn" d="M131.37,170.42s2.45,7.41,3.82,8.78c1.37,1.37,3.59,1.37,4.96,0,1.37-1.37,1.37-3.59,0-4.96-1.37-1.37-8.78-3.82-8.78-3.82Z"/><path class="cn" d="M109.47,182.6s2.45,7.41,3.82,8.78c1.37,1.37,3.59,1.37,4.96,0,1.37-1.37,1.37-3.59,0-4.96-1.37-1.37-8.78-3.82-8.78-3.82Z"/><path class="cn" d="M87.58,170.42s2.45,7.41,3.82,8.78c1.37,1.37,3.59,1.37,4.96,0,1.37-1.37,1.37-3.59,0-4.96-1.37-1.37-8.78-3.82-8.78-3.82Z"/></g><g class="ch"><path class="cn" d="M131.37,219.12s2.45,7.41,3.82,8.78c1.37,1.37,3.59,1.37,4.96,0,1.37-1.37,1.37-3.59,0-4.96-1.37-1.37-8.78-3.82-8.78-3.82Z"/><path class="cn" d="M87.58,219.12s2.45,7.41,3.82,8.78c1.37,1.37,3.59,1.37,4.96,0,1.37-1.37,1.37-3.59,0-4.96-1.37-1.37-8.78-3.82-8.78-3.82Z"/><path class="cn" d="M131.37,194.77s2.45,7.41,3.82,8.78c1.37,1.37,3.59,1.37,4.96,0,1.37-1.37,1.37-3.59,0-4.96-1.37-1.37-8.78-3.82-8.78-3.82Z"/><path class="cn" d="M109.47,206.94s2.45,7.41,3.82,8.78c1.37,1.37,3.59,1.37,4.96,0,1.37-1.37,1.37-3.59,0-4.96-1.37-1.37-8.78-3.82-8.78-3.82Z"/><path class="cn" d="M87.58,194.77s2.45,7.41,3.82,8.78c1.37,1.37,3.59,1.37,4.96,0,1.37-1.37,1.37-3.59,0-4.96-1.37-1.37-8.78-3.82-8.78-3.82Z"/></g><g class="ca"><path class="cn" d="M131.37,243.46s2.45,7.41,3.82,8.78c1.37,1.37,3.59,1.37,4.96,0,1.37-1.37,1.37-3.59,0-4.96-1.37-1.37-8.78-3.82-8.78-3.82Z"/><path class="cn" d="M87.58,243.46s2.45,7.41,3.82,8.78c1.37,1.37,3.59,1.37,4.96,0,1.37-1.37,1.37-3.59,0-4.96-1.37-1.37-8.78-3.82-8.78-3.82Z"/><path class="cn" d="M131.37,219.12s2.45,7.41,3.82,8.78c1.37,1.37,3.59,1.37,4.96,0,1.37-1.37,1.37-3.59,0-4.96-1.37-1.37-8.78-3.82-8.78-3.82Z"/><path class="cn" d="M109.47,231.29s2.45,7.41,3.82,8.78c1.37,1.37,3.59,1.37,4.96,0,1.37-1.37,1.37-3.59,0-4.96-1.37-1.37-8.78-3.82-8.78-3.82Z"/><path class="cn" d="M87.58,219.12s2.45,7.41,3.82,8.78c1.37,1.37,3.59,1.37,4.96,0,1.37-1.37,1.37-3.59,0-4.96-1.37-1.37-8.78-3.82-8.78-3.82Z"/></g><g class="bu"><path class="cn" d="M131.37,267.81s2.45,7.41,3.82,8.78c1.37,1.37,3.59,1.37,4.96,0,1.37-1.37,1.37-3.59,0-4.96-1.37-1.37-8.78-3.82-8.78-3.82Z"/><path class="cn" d="M87.58,267.81s2.45,7.41,3.82,8.78c1.37,1.37,3.59,1.37,4.96,0,1.37-1.37,1.37-3.59,0-4.96-1.37-1.37-8.78-3.82-8.78-3.82Z"/><path class="cn" d="M131.37,243.46s2.45,7.41,3.82,8.78c1.37,1.37,3.59,1.37,4.96,0,1.37-1.37,1.37-3.59,0-4.96-1.37-1.37-8.78-3.82-8.78-3.82Z"/><path class="cn" d="M109.47,255.63s2.45,7.41,3.82,8.78c1.37,1.37,3.59,1.37,4.96,0,1.37-1.37,1.37-3.59,0-4.96-1.37-1.37-8.78-3.82-8.78-3.82Z"/><path class="cn" d="M87.58,243.46s2.45,7.41,3.82,8.78c1.37,1.37,3.59,1.37,4.96,0,1.37-1.37,1.37-3.59,0-4.96-1.37-1.37-8.78-3.82-8.78-3.82Z"/></g><g class="d`"><path class="cn" d="M87.58,24.35s2.45,7.41,3.82,8.78c1.37,1.37,3.59,1.37,4.96,0,1.37-1.37,1.37-3.59,0-4.96-1.37-1.37-8.78-3.82-8.78-3.82Z"/><path class="cn" d="M43.79,24.35s2.45,7.41,3.82,8.78c1.37,1.37,3.59,1.37,4.96,0,1.37-1.37,1.37-3.59,0-4.96-1.37-1.37-8.78-3.82-8.78-3.82Z"/><path class="cn" d="M87.58,0s2.45,7.41,3.82,8.78c1.37,1.37,3.59,1.37,4.96,0,1.37-1.37,1.37-3.59,0-4.96-1.37-1.37-8.78-3.82-8.78-3.82Z"/><path class="cn" d="M65.68,12.17s2.45,7.41,3.82,8.78c1.37,1.37,3.59,1.37,4.96,0,1.37-1.37,1.37-3.59,0-4.96-1.37-1.37-8.78-3.82-8.78-3.82Z"/><path class="cn" d="M43.79,0s2.45,7.41,3.82,8.78c1.37,1.37,3.59,1.37,4.96,0,1.37-1.37,1.37-3.59,0-4.96-1.37-1.37-8.78-3.82-8.78-3.82Z"/></g><g class="cm"><path class="cn" d="M87.58,48.69s2.45,7.41,3.82,8.78c1.37,1.37,3.59,1.37,4.96,0,1.37-1.37,1.37-3.59,0-4.96-1.37-1.37-8.78-3.82-8.78-3.82Z"/><path class="cn" d="M43.79,48.69s2.45,7.41,3.82,8.78c1.37,1.37,3.59,1.37,4.96,0,1.37-1.37,1.37-3.59,0-4.96-1.37-1.37-8.78-3.82-8.78-3.82Z"/><path class="cn" d="M87.58,24.35s2.45,7.41,3.82,8.78c1.37,1.37,3.59,1.37,4.96,0,1.37-1.37,1.37-3.59,0-4.96-1.37-1.37-8.78-3.82-8.78-3.82Z"/><path class="cn" d="M65.68,36.52s2.45,7.41,3.82,8.78c1.37,1.37,3.59,1.37,4.96,0,1.37-1.37,1.37-3.59,0-4.96-1.37-1.37-8.78-3.82-8.78-3.82Z"/><path class="cn" d="M43.79,24.35s2.45,7.41,3.82,8.78c1.37,1.37,3.59,1.37,4.96,0,1.37-1.37,1.37-3.59,0-4.96-1.37-1.37-8.78-3.82-8.78-3.82Z"/></g><g class="ei"><path class="cn" d="M87.58,73.04s2.45,7.41,3.82,8.78c1.37,1.37,3.59,1.37,4.96,0,1.37-1.37,1.37-3.59,0-4.96-1.37-1.37-8.78-3.82-8.78-3.82Z"/><path class="cn" d="M43.79,73.04s2.45,7.41,3.82,8.78c1.37,1.37,3.59,1.37,4.96,0,1.37-1.37,1.37-3.59,0-4.96-1.37-1.37-8.78-3.82-8.78-3.82Z"/><path class="cn" d="M87.58,48.69s2.45,7.41,3.82,8.78c1.37,1.37,3.59,1.37,4.96,0,1.37-1.37,1.37-3.59,0-4.96-1.37-1.37-8.78-3.82-8.78-3.82Z"/><path class="cn" d="M65.68,60.87s2.45,7.41,3.82,8.78c1.37,1.37,3.59,1.37,4.96,0,1.37-1.37,1.37-3.59,0-4.96-1.37-1.37-8.78-3.82-8.78-3.82Z"/><path class="cn" d="M43.79,48.69s2.45,7.41,3.82,8.78c1.37,1.37,3.59,1.37,4.96,0,1.37-1.37,1.37-3.59,0-4.96-1.37-1.37-8.78-3.82-8.78-3.82Z"/></g><g class="dp"><path class="cn" d="M87.58,97.38s2.45,7.41,3.82,8.78c1.37,1.37,3.59,1.37,4.96,0,1.37-1.37,1.37-3.59,0-4.96-1.37-1.37-8.78-3.82-8.78-3.82Z"/><path class="cn" d="M43.79,97.38s2.45,7.41,3.82,8.78c1.37,1.37,3.59,1.37,4.96,0,1.37-1.37,1.37-3.59,0-4.96-1.37-1.37-8.78-3.82-8.78-3.82Z"/><path class="cn" d="M87.58,73.04s2.45,7.41,3.82,8.78c1.37,1.37,3.59,1.37,4.96,0,1.37-1.37,1.37-3.59,0-4.96-1.37-1.37-8.78-3.82-8.78-3.82Z"/><path class="cn" d="M65.68,85.21s2.45,7.41,3.82,8.78c1.37,1.37,3.59,1.37,4.96,0,1.37-1.37,1.37-3.59,0-4.96-1.37-1.37-8.78-3.82-8.78-3.82Z"/><path class="cn" d="M43.79,73.04s2.45,7.41,3.82,8.78c1.37,1.37,3.59,1.37,4.96,0,1.37-1.37,1.37-3.59,0-4.96-1.37-1.37-8.78-3.82-8.78-3.82Z"/></g><g class="cx"><path class="cn" d="M87.58,121.73s2.45,7.41,3.82,8.78c1.37,1.37,3.59,1.37,4.96,0,1.37-1.37,1.37-3.59,0-4.96-1.37-1.37-8.78-3.82-8.78-3.82Z"/><path class="cn" d="M43.79,121.73s2.45,7.41,3.82,8.78c1.37,1.37,3.59,1.37,4.96,0,1.37-1.37,1.37-3.59,0-4.96-1.37-1.37-8.78-3.82-8.78-3.82Z"/><path class="cn" d="M87.58,97.38s2.45,7.41,3.82,8.78c1.37,1.37,3.59,1.37,4.96,0,1.37-1.37,1.37-3.59,0-4.96-1.37-1.37-8.78-3.82-8.78-3.82Z"/><path class="cn" d="M65.68,109.56s2.45,7.41,3.82,8.78c1.37,1.37,3.59,1.37,4.96,0,1.37-1.37,1.37-3.59,0-4.96-1.37-1.37-8.78-3.82-8.78-3.82Z"/><path class="cn" d="M43.79,97.38s2.45,7.41,3.82,8.78c1.37,1.37,3.59,1.37,4.96,0,1.37-1.37,1.37-3.59,0-4.96-1.37-1.37-8.78-3.82-8.78-3.82Z"/></g><g class="dx"><path class="cn" d="M87.58,146.08s2.45,7.41,3.82,8.78c1.37,1.37,3.59,1.37,4.96,0,1.37-1.37,1.37-3.59,0-4.96-1.37-1.37-8.78-3.82-8.78-3.82Z"/><path class="cn" d="M43.79,146.08s2.45,7.41,3.82,8.78c1.37,1.37,3.59,1.37,4.96,0,1.37-1.37,1.37-3.59,0-4.96-1.37-1.37-8.78-3.82-8.78-3.82Z"/><path class="cn" d="M87.58,121.73s2.45,7.41,3.82,8.78c1.37,1.37,3.59,1.37,4.96,0,1.37-1.37,1.37-3.59,0-4.96-1.37-1.37-8.78-3.82-8.78-3.82Z"/><path class="cn" d="M65.68,133.9s2.45,7.41,3.82,8.78c1.37,1.37,3.59,1.37,4.96,0,1.37-1.37,1.37-3.59,0-4.96-1.37-1.37-8.78-3.82-8.78-3.82Z"/><path class="cn" d="M43.79,121.73s2.45,7.41,3.82,8.78c1.37,1.37,3.59,1.37,4.96,0,1.37-1.37,1.37-3.59,0-4.96-1.37-1.37-8.78-3.82-8.78-3.82Z"/></g><g class="e`"><path class="cn" d="M87.58,170.42s2.45,7.41,3.82,8.78c1.37,1.37,3.59,1.37,4.96,0,1.37-1.37,1.37-3.59,0-4.96-1.37-1.37-8.78-3.82-8.78-3.82Z"/><path class="cn" d="M43.79,170.42s2.45,7.41,3.82,8.78c1.37,1.37,3.59,1.37,4.96,0,1.37-1.37,1.37-3.59,0-4.96-1.37-1.37-8.78-3.82-8.78-3.82Z"/><path class="cn" d="M87.58,146.08s2.45,7.41,3.82,8.78c1.37,1.37,3.59,1.37,4.96,0,1.37-1.37,1.37-3.59,0-4.96-1.37-1.37-8.78-3.82-8.78-3.82Z"/><path class="cn" d="M65.68,158.25s2.45,7.41,3.82,8.78c1.37,1.37,3.59,1.37,4.96,0,1.37-1.37,1.37-3.59,0-4.96-1.37-1.37-8.78-3.82-8.78-3.82Z"/><path class="cn" d="M43.79,146.08s2.45,7.41,3.82,8.78c1.37,1.37,3.59,1.37,4.96,0,1.37-1.37,1.37-3.59,0-4.96-1.37-1.37-8.78-3.82-8.78-3.82Z"/></g><g class="df"><path class="cn" d="M87.58,194.77s2.45,7.41,3.82,8.78c1.37,1.37,3.59,1.37,4.96,0,1.37-1.37,1.37-3.59,0-4.96-1.37-1.37-8.78-3.82-8.78-3.82Z"/><path class="cn" d="M43.79,194.77s2.45,7.41,3.82,8.78c1.37,1.37,3.59,1.37,4.96,0,1.37-1.37,1.37-3.59,0-4.96-1.37-1.37-8.78-3.82-8.78-3.82Z"/><path class="cn" d="M87.58,170.42s2.45,7.41,3.82,8.78c1.37,1.37,3.59,1.37,4.96,0,1.37-1.37,1.37-3.59,0-4.96-1.37-1.37-8.78-3.82-8.78-3.82Z"/><path class="cn" d="M65.68,182.6s2.45,7.41,3.82,8.78c1.37,1.37,3.59,1.37,4.96,0,1.37-1.37,1.37-3.59,0-4.96-1.37-1.37-8.78-3.82-8.78-3.82Z"/><path class="cn" d="M43.79,170.42s2.45,7.41,3.82,8.78c1.37,1.37,3.59,1.37,4.96,0,1.37-1.37,1.37-3.59,0-4.96-1.37-1.37-8.78-3.82-8.78-3.82Z"/></g><g class="ck"><path class="cn" d="M87.58,219.12s2.45,7.41,3.82,8.78c1.37,1.37,3.59,1.37,4.96,0,1.37-1.37,1.37-3.59,0-4.96-1.37-1.37-8.78-3.82-8.78-3.82Z"/><path class="cn" d="M43.79,219.12s2.45,7.41,3.82,8.78c1.37,1.37,3.59,1.37,4.96,0,1.37-1.37,1.37-3.59,0-4.96-1.37-1.37-8.78-3.82-8.78-3.82Z"/><path class="cn" d="M87.58,194.77s2.45,7.41,3.82,8.78c1.37,1.37,3.59,1.37,4.96,0,1.37-1.37,1.37-3.59,0-4.96-1.37-1.37-8.78-3.82-8.78-3.82Z"/><path class="cn" d="M65.68,206.94s2.45,7.41,3.82,8.78c1.37,1.37,3.59,1.37,4.96,0,1.37-1.37,1.37-3.59,0-4.96-1.37-1.37-8.78-3.82-8.78-3.82Z"/><path class="cn" d="M43.79,194.77s2.45,7.41,3.82,8.78c1.37,1.37,3.59,1.37,4.96,0,1.37-1.37,1.37-3.59,0-4.96-1.37-1.37-8.78-3.82-8.78-3.82Z"/></g><g class="cc"><path class="cn" d="M87.58,243.46s2.45,7.41,3.82,8.78c1.37,1.37,3.59,1.37,4.96,0,1.37-1.37,1.37-3.59,0-4.96-1.37-1.37-8.78-3.82-8.78-3.82Z"/><path class="cn" d="M43.79,243.46s2.45,7.41,3.82,8.78c1.37,1.37,3.59,1.37,4.96,0,1.37-1.37,1.37-3.59,0-4.96-1.37-1.37-8.78-3.82-8.78-3.82Z"/><path class="cn" d="M87.58,219.12s2.45,7.41,3.82,8.78c1.37,1.37,3.59,1.37,4.96,0,1.37-1.37,1.37-3.59,0-4.96-1.37-1.37-8.78-3.82-8.78-3.82Z"/><path class="cn" d="M65.68,231.29s2.45,7.41,3.82,8.78c1.37,1.37,3.59,1.37,4.96,0,1.37-1.37,1.37-3.59,0-4.96-1.37-1.37-8.78-3.82-8.78-3.82Z"/><path class="cn" d="M43.79,219.12s2.45,7.41,3.82,8.78c1.37,1.37,3.59,1.37,4.96,0,1.37-1.37,1.37-3.59,0-4.96-1.37-1.37-8.78-3.82-8.78-3.82Z"/></g><g class="ci"><path class="cn" d="M87.58,267.81s2.45,7.41,3.82,8.78c1.37,1.37,3.59,1.37,4.96,0,1.37-1.37,1.37-3.59,0-4.96-1.37-1.37-8.78-3.82-8.78-3.82Z"/><path class="cn" d="M43.79,267.81s2.45,7.41,3.82,8.78c1.37,1.37,3.59,1.37,4.96,0,1.37-1.37,1.37-3.59,0-4.96-1.37-1.37-8.78-3.82-8.78-3.82Z"/><path class="cn" d="M87.58,243.46s2.45,7.41,3.82,8.78c1.37,1.37,3.59,1.37,4.96,0,1.37-1.37,1.37-3.59,0-4.96-1.37-1.37-8.78-3.82-8.78-3.82Z"/><path class="cn" d="M65.68,255.63s2.45,7.41,3.82,8.78c1.37,1.37,3.59,1.37,4.96,0,1.37-1.37,1.37-3.59,0-4.96-1.37-1.37-8.78-3.82-8.78-3.82Z"/><path class="cn" d="M43.79,243.46s2.45,7.41,3.82,8.78c1.37,1.37,3.59,1.37,4.96,0,1.37-1.37,1.37-3.59,0-4.96-1.37-1.37-8.78-3.82-8.78-3.82Z"/></g><g class="bs"><path class="cn" d="M43.79,24.35s2.45,7.41,3.82,8.78c1.37,1.37,3.59,1.37,4.96,0,1.37-1.37,1.37-3.59,0-4.96-1.37-1.37-8.78-3.82-8.78-3.82Z"/><path class="cn" d="M0,24.35s2.45,7.41,3.82,8.78c1.37,1.37,3.59,1.37,4.96,0,1.37-1.37,1.37-3.59,0-4.96-1.37-1.37-8.78-3.82-8.78-3.82Z"/><path class="cn" d="M43.79,0s2.45,7.41,3.82,8.78c1.37,1.37,3.59,1.37,4.96,0,1.37-1.37,1.37-3.59,0-4.96-1.37-1.37-8.78-3.82-8.78-3.82Z"/><path class="cn" d="M21.89,12.17s2.45,7.41,3.82,8.78c1.37,1.37,3.59,1.37,4.96,0,1.37-1.37,1.37-3.59,0-4.96-1.37-1.37-8.78-3.82-8.78-3.82Z"/><path class="cn" d="M0,0S2.45,7.41,3.82,8.78c1.37,1.37,3.59,1.37,4.96,0,1.37-1.37,1.37-3.59,0-4.96C7.41,2.45,0,0,0,0Z"/></g><g class="cy"><path class="cn" d="M43.79,48.69s2.45,7.41,3.82,8.78c1.37,1.37,3.59,1.37,4.96,0,1.37-1.37,1.37-3.59,0-4.96-1.37-1.37-8.78-3.82-8.78-3.82Z"/><path class="cn" d="M0,48.69s2.45,7.41,3.82,8.78c1.37,1.37,3.59,1.37,4.96,0,1.37-1.37,1.37-3.59,0-4.96-1.37-1.37-8.78-3.82-8.78-3.82Z"/><path class="cn" d="M43.79,24.35s2.45,7.41,3.82,8.78c1.37,1.37,3.59,1.37,4.96,0,1.37-1.37,1.37-3.59,0-4.96-1.37-1.37-8.78-3.82-8.78-3.82Z"/><path class="cn" d="M21.89,36.52s2.45,7.41,3.82,8.78c1.37,1.37,3.59,1.37,4.96,0,1.37-1.37,1.37-3.59,0-4.96-1.37-1.37-8.78-3.82-8.78-3.82Z"/><path class="cn" d="M0,24.35s2.45,7.41,3.82,8.78c1.37,1.37,3.59,1.37,4.96,0,1.37-1.37,1.37-3.59,0-4.96-1.37-1.37-8.78-3.82-8.78-3.82Z"/></g><g class="cr"><path class="cn" d="M43.79,73.04s2.45,7.41,3.82,8.78c1.37,1.37,3.59,1.37,4.96,0,1.37-1.37,1.37-3.59,0-4.96-1.37-1.37-8.78-3.82-8.78-3.82Z"/><path class="cn" d="M0,73.04s2.45,7.41,3.82,8.78c1.37,1.37,3.59,1.37,4.96,0,1.37-1.37,1.37-3.59,0-4.96-1.37-1.37-8.78-3.82-8.78-3.82Z"/><path class="cn" d="M43.79,48.69s2.45,7.41,3.82,8.78c1.37,1.37,3.59,1.37,4.96,0,1.37-1.37,1.37-3.59,0-4.96-1.37-1.37-8.78-3.82-8.78-3.82Z"/><path class="cn" d="M21.89,60.87s2.45,7.41,3.82,8.78c1.37,1.37,3.59,1.37,4.96,0,1.37-1.37,1.37-3.59,0-4.96-1.37-1.37-8.78-3.82-8.78-3.82Z"/><path class="cn" d="M0,48.69s2.45,7.41,3.82,8.78c1.37,1.37,3.59,1.37,4.96,0,1.37-1.37,1.37-3.59,0-4.96-1.37-1.37-8.78-3.82-8.78-3.82Z"/></g><g class="dc"><path class="cn" d="M43.79,97.38s2.45,7.41,3.82,8.78c1.37,1.37,3.59,1.37,4.96,0,1.37-1.37,1.37-3.59,0-4.96-1.37-1.37-8.78-3.82-8.78-3.82Z"/><path class="cn" d="M0,97.38s2.45,7.41,3.82,8.78c1.37,1.37,3.59,1.37,4.96,0,1.37-1.37,1.37-3.59,0-4.96-1.37-1.37-8.78-3.82-8.78-3.82Z"/><path class="cn" d="M43.79,73.04s2.45,7.41,3.82,8.78c1.37,1.37,3.59,1.37,4.96,0,1.37-1.37,1.37-3.59,0-4.96-1.37-1.37-8.78-3.82-8.78-3.82Z"/><path class="cn" d="M21.89,85.21s2.45,7.41,3.82,8.78c1.37,1.37,3.59,1.37,4.96,0,1.37-1.37,1.37-3.59,0-4.96-1.37-1.37-8.78-3.82-8.78-3.82Z"/><path class="cn" d="M0,73.04s2.45,7.41,3.82,8.78c1.37,1.37,3.59,1.37,4.96,0,1.37-1.37,1.37-3.59,0-4.96-1.37-1.37-8.78-3.82-8.78-3.82Z"/></g><g class="dr"><path class="cn" d="M43.79,121.73s2.45,7.41,3.82,8.78c1.37,1.37,3.59,1.37,4.96,0,1.37-1.37,1.37-3.59,0-4.96-1.37-1.37-8.78-3.82-8.78-3.82Z"/><path class="cn" d="M0,121.73s2.45,7.41,3.82,8.78c1.37,1.37,3.59,1.37,4.96,0,1.37-1.37,1.37-3.59,0-4.96-1.37-1.37-8.78-3.82-8.78-3.82Z"/><path class="cn" d="M43.79,97.38s2.45,7.41,3.82,8.78c1.37,1.37,3.59,1.37,4.96,0,1.37-1.37,1.37-3.59,0-4.96-1.37-1.37-8.78-3.82-8.78-3.82Z"/><path class="cn" d="M21.89,109.56s2.45,7.41,3.82,8.78c1.37,1.37,3.59,1.37,4.96,0,1.37-1.37,1.37-3.59,0-4.96-1.37-1.37-8.78-3.82-8.78-3.82Z"/><path class="cn" d="M0,97.38s2.45,7.41,3.82,8.78c1.37,1.37,3.59,1.37,4.96,0,1.37-1.37,1.37-3.59,0-4.96-1.37-1.37-8.78-3.82-8.78-3.82Z"/></g><g class="bv"><path class="cn" d="M43.79,146.08s2.45,7.41,3.82,8.78c1.37,1.37,3.59,1.37,4.96,0,1.37-1.37,1.37-3.59,0-4.96-1.37-1.37-8.78-3.82-8.78-3.82Z"/><path class="cn" d="M0,146.08s2.45,7.41,3.82,8.78c1.37,1.37,3.59,1.37,4.96,0,1.37-1.37,1.37-3.59,0-4.96-1.37-1.37-8.78-3.82-8.78-3.82Z"/><path class="cn" d="M43.79,121.73s2.45,7.41,3.82,8.78c1.37,1.37,3.59,1.37,4.96,0,1.37-1.37,1.37-3.59,0-4.96-1.37-1.37-8.78-3.82-8.78-3.82Z"/><path class="cn" d="M21.89,133.9s2.45,7.41,3.82,8.78c1.37,1.37,3.59,1.37,4.96,0,1.37-1.37,1.37-3.59,0-4.96-1.37-1.37-8.78-3.82-8.78-3.82Z"/><path class="cn" d="M0,121.73s2.45,7.41,3.82,8.78c1.37,1.37,3.59,1.37,4.96,0,1.37-1.37,1.37-3.59,0-4.96-1.37-1.37-8.78-3.82-8.78-3.82Z"/></g><g class="cl"><path class="cn" d="M43.79,170.42s2.45,7.41,3.82,8.78c1.37,1.37,3.59,1.37,4.96,0,1.37-1.37,1.37-3.59,0-4.96-1.37-1.37-8.78-3.82-8.78-3.82Z"/><path class="cn" d="M0,170.42s2.45,7.41,3.82,8.78c1.37,1.37,3.59,1.37,4.96,0,1.37-1.37,1.37-3.59,0-4.96-1.37-1.37-8.78-3.82-8.78-3.82Z"/><path class="cn" d="M43.79,146.08s2.45,7.41,3.82,8.78c1.37,1.37,3.59,1.37,4.96,0,1.37-1.37,1.37-3.59,0-4.96-1.37-1.37-8.78-3.82-8.78-3.82Z"/><path class="cn" d="M21.89,158.25s2.45,7.41,3.82,8.78c1.37,1.37,3.59,1.37,4.96,0,1.37-1.37,1.37-3.59,0-4.96-1.37-1.37-8.78-3.82-8.78-3.82Z"/><path class="cn" d="M0,146.08s2.45,7.41,3.82,8.78c1.37,1.37,3.59,1.37,4.96,0,1.37-1.37,1.37-3.59,0-4.96-1.37-1.37-8.78-3.82-8.78-3.82Z"/></g><g class="db"><path class="cn" d="M43.79,194.77s2.45,7.41,3.82,8.78c1.37,1.37,3.59,1.37,4.96,0,1.37-1.37,1.37-3.59,0-4.96-1.37-1.37-8.78-3.82-8.78-3.82Z"/><path class="cn" d="M0,194.77s2.45,7.41,3.82,8.78c1.37,1.37,3.59,1.37,4.96,0,1.37-1.37,1.37-3.59,0-4.96-1.37-1.37-8.78-3.82-8.78-3.82Z"/><path class="cn" d="M43.79,170.42s2.45,7.41,3.82,8.78c1.37,1.37,3.59,1.37,4.96,0,1.37-1.37,1.37-3.59,0-4.96-1.37-1.37-8.78-3.82-8.78-3.82Z"/><path class="cn" d="M21.89,182.6s2.45,7.41,3.82,8.78c1.37,1.37,3.59,1.37,4.96,0,1.37-1.37,1.37-3.59,0-4.96-1.37-1.37-8.78-3.82-8.78-3.82Z"/><path class="cn" d="M0,170.42s2.45,7.41,3.82,8.78c1.37,1.37,3.59,1.37,4.96,0,1.37-1.37,1.37-3.59,0-4.96-1.37-1.37-8.78-3.82-8.78-3.82Z"/></g><g class="cs"><path class="cn" d="M43.79,219.12s2.45,7.41,3.82,8.78c1.37,1.37,3.59,1.37,4.96,0,1.37-1.37,1.37-3.59,0-4.96-1.37-1.37-8.78-3.82-8.78-3.82Z"/><path class="cn" d="M0,219.12s2.45,7.41,3.82,8.78c1.37,1.37,3.59,1.37,4.96,0,1.37-1.37,1.37-3.59,0-4.96-1.37-1.37-8.78-3.82-8.78-3.82Z"/><path class="cn" d="M43.79,194.77s2.45,7.41,3.82,8.78c1.37,1.37,3.59,1.37,4.96,0,1.37-1.37,1.37-3.59,0-4.96-1.37-1.37-8.78-3.82-8.78-3.82Z"/><path class="cn" d="M21.89,206.94s2.45,7.41,3.82,8.78c1.37,1.37,3.59,1.37,4.96,0,1.37-1.37,1.37-3.59,0-4.96-1.37-1.37-8.78-3.82-8.78-3.82Z"/><path class="cn" d="M0,194.77s2.45,7.41,3.82,8.78c1.37,1.37,3.59,1.37,4.96,0,1.37-1.37,1.37-3.59,0-4.96-1.37-1.37-8.78-3.82-8.78-3.82Z"/></g><g class="dm"><path class="cn" d="M43.79,243.46s2.45,7.41,3.82,8.78c1.37,1.37,3.59,1.37,4.96,0,1.37-1.37,1.37-3.59,0-4.96-1.37-1.37-8.78-3.82-8.78-3.82Z"/><path class="cn" d="M0,243.46s2.45,7.41,3.82,8.78c1.37,1.37,3.59,1.37,4.96,0,1.37-1.37,1.37-3.59,0-4.96-1.37-1.37-8.78-3.82-8.78-3.82Z"/><path class="cn" d="M43.79,219.12s2.45,7.41,3.82,8.78c1.37,1.37,3.59,1.37,4.96,0,1.37-1.37,1.37-3.59,0-4.96-1.37-1.37-8.78-3.82-8.78-3.82Z"/><path class="cn" d="M21.89,231.29s2.45,7.41,3.82,8.78c1.37,1.37,3.59,1.37,4.96,0,1.37-1.37,1.37-3.59,0-4.96-1.37-1.37-8.78-3.82-8.78-3.82Z"/><path class="cn" d="M0,219.12s2.45,7.41,3.82,8.78c1.37,1.37,3.59,1.37,4.96,0,1.37-1.37,1.37-3.59,0-4.96-1.37-1.37-8.78-3.82-8.78-3.82Z"/></g><g class="cb"><path class="cn" d="M43.79,267.81s2.45,7.41,3.82,8.78c1.37,1.37,3.59,1.37,4.96,0,1.37-1.37,1.37-3.59,0-4.96-1.37-1.37-8.78-3.82-8.78-3.82Z"/><path class="cn" d="M0,267.81s2.45,7.41,3.82,8.78c1.37,1.37,3.59,1.37,4.96,0,1.37-1.37,1.37-3.59,0-4.96-1.37-1.37-8.78-3.82-8.78-3.82Z"/><path class="cn" d="M43.79,243.46s2.45,7.41,3.82,8.78c1.37,1.37,3.59,1.37,4.96,0,1.37-1.37,1.37-3.59,0-4.96-1.37-1.37-8.78-3.82-8.78-3.82Z"/><path class="cn" d="M21.89,255.63s2.45,7.41,3.82,8.78c1.37,1.37,3.59,1.37,4.96,0,1.37-1.37,1.37-3.59,0-4.96-1.37-1.37-8.78-3.82-8.78-3.82Z"/><path class="cn" d="M0,243.46s2.45,7.41,3.82,8.78c1.37,1.37,3.59,1.37,4.96,0,1.37-1.37,1.37-3.59,0-4.96-1.37-1.37-8.78-3.82-8.78-3.82Z"/></g></g></g></g></svg>