<?xml version="1.0" encoding="UTF-8"?><svg xmlns="http://www.w3.org/2000/svg" viewBox="0 0 169.47 274.14"><defs><style>.d,.e{fill:#F5A26C00;}.f{fill:none;stroke-dasharray:0 0 4.98 4.98;}.f,.e{stroke:#fff;stroke-linecap:round;stroke-linejoin:round;stroke-width:2px;}.e{stroke-dasharray:0 5;}</style></defs><g id="a"/><g id="b"><g id="c"><g><g><path class="e" d="M56.37,158.91c7.56,3.56,12.78,9.32,12.78,17.29v83.78c0,17.55-68.15,17.55-68.15,0v-83.78c0-7.96,5.21-13.71,12.74-17.27"/><path class="e" d="M13.74,152.03v5.9c.3,0,.51,.15,.67,.43,.18,.25,.33,.51,.45,.78H56.41v-7.11"/><path class="e" d="M1,176.2c22.72-3.29,45.43-3.29,68.15,0"/><path class="e" d="M69.15,259.98c-22.72,2.59-45.43,2.59-68.15,0"/><polygon class="e" points="63.47 152.47 6.18 152.47 6.18 117.17 25.11 64.58 44.67 64.58 63.47 117.17 63.47 152.47"/></g><g><path class="d" d="M111.31,12c-1.39,6.31-3.85,15.22-4.86,18.79-1.26,4.46-2.94,11.33-3.28,20.06l-.06,.08v1.56c0,.3,0,.61,0,.95v213.61l.42,.69c2.16,3.49,13.58,5.41,32.17,5.41s30.02-1.92,32.17-5.41l.42-.68V53.16c0-.06,0-.12,0-.18h0v-1.02l-.03-1.11-.04-.04c-.34-8.71-2.02-15.56-3.28-20.02-1.01-3.56-3.47-12.45-4.86-18.8-.27-1.36-.7-2.73-1.58-3.94-.13-.17-.28-.34-.43-.51l-.09-.09c-.26-.28-.53-.54-.82-.79l-.1-.08c-1.55-1.31-3.66-2.42-6.32-3.34l-.21-.08c-.35-.12-.71-.22-1.11-.34l-.61-.18c-.33-.09-.68-.18-1.02-.26-.26-.06-.53-.13-.8-.19-.32-.07-.65-.14-.98-.21-.31-.06-.62-.12-.94-.18-.31-.06-.63-.11-.96-.16-.35-.05-.71-.11-1.08-.15,0,0-.65-.09-.92-.12-.4-.04-.8-.08-1.2-.12,0,0-.64-.06-.87-.08-.46-.04-.93-.06-1.41-.08,0,0-.57-.03-.74-.04-.73-.03-1.46-.04-2.21-.04s-1.48,.02-2.2,.04c-.17,0-.75,.04-.75,.04-.47,.02-.94,.05-1.4,.08-.22,.02-.87,.08-.87,.08-.4,.04-.81,.08-1.2,.12-.27,.03-.53,.06-.79,.1l-.14,.02c-.36,.05-.72,.1-1.08,.16-.32,.05-.63,.1-.94,.16-.32,.06-.63,.12-.95,.18-.33,.07-.66,.13-.98,.21-.27,.06-.54,.12-.8,.19-.35,.08-.69,.17-1.04,.27l-.67,.2c-.35,.1-.7,.21-1.04,.32l-.25,.09c-2.62,.9-4.73,2.01-6.28,3.32l-.1,.09c-.3,.26-.59,.54-.9,.87-.17,.18-.32,.37-.46,.55-.74,1.03-1.24,2.35-1.55,3.91Z"/><path class="f" d="M111.31,12c-3.49,16.56-7.4,22.27-8.21,39.96,.06,.47-.02,.98,0,1.48v213.61c2.54,4.83,13.31,5.73,32.6,6.1,18.59,0,30.02-1.92,32.17-5.41,1.31,.11-.06-214.23,.42-214.55-.44-17.9-4.68-24.45-8.21-41.18-.8-5.49-6.09-7.85-11.28-9.34-8.15-2.12-17-2.18-25.21-.26-5.47,1.48-11.34,3.58-12.3,9.61h0Z"/></g></g></g></g></svg>