<?xml version="1.0" encoding="UTF-8"?><svg xmlns="http://www.w3.org/2000/svg" viewBox="0 0 60.69 45.32"><defs><style>.d{fill:#fff;}.e{stroke-width:2.21px;}.e,.f,.g,.h{fill:none;stroke:#fff;stroke-linecap:round;}.e,.g,.h{stroke-miterlimit:10;}.f{stroke-linejoin:round;stroke-width:1.52px;}.g{stroke-width:1.1px;}.h{stroke-width:.94px;}</style></defs><g id="a"/><g id="b"><g id="c"><g><g><path class="e" d="M26.06,26.06c-2.65,2.65-6.3,4.28-10.34,4.28C7.65,30.35,1.1,23.8,1.1,15.72S7.65,1.1,15.72,1.1s14.62,6.55,14.62,14.62"/><path class="e" d="M34.63,5.39c2.65-2.65,6.3-4.28,10.34-4.28,8.08,0,14.62,6.55,14.62,14.62s-6.55,14.62-14.62,14.62-14.62-6.55-14.62-14.62"/><g><path class="g" d="M10.68,18.31h0c-.39-.39,.96-2.44,.92-2.95-.05-.63,.16-1.28,.64-1.76l7.21-7.21c.87-.87,2.28-.87,3.14,0h0c.87,.87,.87,2.28,0,3.14l-7.21,7.21c-.48,.48-1.13,.7-1.76,.64-.51-.04-2.56,1.3-2.95,.92Z"/><line class="g" x1="17.01" y1="6.34" x2="22.65" y2="11.99"/></g><path class="g" d="M11.95,23.91c0,1.08-.87,1.95-1.95,1.95s-1.95-.87-1.95-1.95,1.95-3.49,1.95-3.49c0,0,1.95,2.41,1.95,3.49Z"/><g><rect class="g" x="40.94" y="8.7" width="8.05" height="15.71" rx="2.02" ry="2.02"/><rect class="h" x="42.46" y="7.04" width="5.01" height="1.65" rx=".56" ry=".56"/><g><rect class="d" x="42.27" y="12.11" width="5.39" height="2.52" rx=".71" ry=".71"/><rect class="d" x="42.27" y="15.29" width="5.39" height="2.52" rx=".71" ry=".71"/><rect class="d" x="42.27" y="18.47" width="5.39" height="2.52" rx=".71" ry=".71"/></g></g><polyline class="f" points="37.62 6.7 33.32 6.7 33.32 2.68"/><polyline class="f" points="23.25 24.73 27.55 24.73 27.55 28.74"/></g><g><path class="d" d="M4.27,40.81c.39,.22,.79,.8,.79,1.62v2.28c0,.29-.24,.53-.53,.53s-.53-.24-.53-.53v-1.98c0-.8-.42-1.41-1.1-1.41h-.74v3.4c0,.29-.24,.53-.53,.53s-.53-.24-.53-.53v-8.44c0-.59,.25-.84,.85-.84h.93c1.39,0,2.2,.92,2.2,2.61v.66c0,.96-.25,1.68-.82,2.11Zm-.21-2.33v-.21c0-1.26-.38-1.86-1.27-1.86h-.63v3.93h.63c.89,0,1.27-.6,1.27-1.86Z"/><path class="d" d="M10.39,44.72c0,.28-.24,.49-.52,.49h-2.15c-.6,0-.85-.25-.85-.84v-8.1c0-.59,.25-.84,.85-.84h2.15c.28,0,.52,.21,.52,.49s-.24,.49-.52,.49h-1.94v2.93h1.73c.28,0,.52,.21,.52,.49s-.24,.49-.52,.49h-1.73v3.91h1.94c.28,0,.52,.21,.52,.49Zm-2.24-10.39c0-.08,.03-.17,.07-.24l.56-.88c.08-.13,.21-.21,.38-.21,.25,0,.45,.2,.45,.45,0,.08-.03,.17-.07,.24l-.56,.88c-.08,.13-.21,.21-.38,.21-.25,0-.45-.2-.45-.45Z"/><path class="d" d="M11.92,43.03v-7.13c0-.29,.24-.53,.53-.53s.53,.24,.53,.53v6.94c0,1.05,.36,1.47,1.03,1.47s1.03-.42,1.03-1.47v-6.94c0-.29,.24-.53,.53-.53s.53,.24,.53,.53v7.13c0,1.41-.72,2.29-2.09,2.29s-2.09-.88-2.09-2.29Z"/><path class="d" d="M18.98,44.71v-8.3h-1.2c-.28,0-.52-.21-.52-.49s.24-.49,.52-.49h3.46c.28,0,.52,.21,.52,.49s-.24,.49-.52,.49h-1.2v8.3c0,.29-.24,.53-.53,.53s-.53-.24-.53-.53Z"/><path class="d" d="M23.05,44.71v-8.8c0-.29,.24-.53,.53-.53s.53,.24,.53,.53v8.8c0,.29-.24,.53-.53,.53s-.53-.24-.53-.53Z"/><path class="d" d="M26.13,44.37v-8.47c0-.29,.24-.53,.53-.53s.53,.24,.53,.53v8.3h1.84c.31,0,.53,.21,.53,.5s-.22,.5-.53,.5h-2.05c-.6,0-.85-.25-.85-.84Z"/><path class="d" d="M30.9,44.71v-8.8c0-.29,.24-.53,.53-.53s.53,.24,.53,.53v8.8c0,.29-.24,.53-.53,.53s-.53-.24-.53-.53Z"/><path class="d" d="M33.56,42.95c0-.61,.14-1.09,.24-1.31,.14-.32,.43-.45,.74-.35,.28,.08,.36,.42,.25,.71-.11,.32-.17,.57-.17,.89,0,.85,.42,1.43,1.13,1.43s1.13-.49,1.13-1.9c0-1.12-.29-1.7-1.21-2.31l-.53-.35c-.91-.59-1.34-1.22-1.34-2.33,0-1.29,.82-2.11,2.01-2.11s1.97,.7,1.97,2.11v.11c0,.32-.22,.52-.52,.52s-.52-.2-.52-.54v-.08c0-.87-.38-1.13-.91-1.13-.59,0-.98,.46-.98,1.13s.24,1.02,.78,1.37l.53,.35c1.31,.84,1.78,1.59,1.78,3.2,0,2.19-.93,2.96-2.23,2.96s-2.16-.88-2.16-2.36Z"/><path class="d" d="M43.6,37.58v7.13c0,.29-.24,.53-.53,.53s-.53-.24-.53-.53v-3.02h-2.06v3.02c0,.29-.24,.53-.53,.53s-.53-.24-.53-.53v-7.13c0-1.41,.72-2.29,2.09-2.29s2.09,.88,2.09,2.29Zm-1.06,3.13v-2.95c0-1.05-.36-1.47-1.03-1.47s-1.03,.42-1.03,1.47v2.95h2.06Z"/><path class="d" d="M49.73,42.25c0,1.96-.7,2.99-2.09,2.99h-1.31c-.6,0-.85-.25-.85-.84v-8.13c0-.59,.25-.84,.85-.84h1.16c1.32,0,2.08,.78,2.08,2.33,0,1.02-.21,1.7-.74,2.04,.63,.43,.91,1.12,.91,2.44Zm-3.22-2.91h.82c.85,0,1.2-.52,1.2-1.49,0-.91-.31-1.44-1.13-1.44h-.89v2.93Zm2.16,2.85c0-1.34-.42-1.87-1.27-1.87h-.89v3.94h.92c.99,0,1.24-.7,1.24-2.07Z"/><path class="d" d="M51.38,44.37v-8.47c0-.29,.24-.53,.53-.53s.53,.24,.53,.53v8.3h1.84c.31,0,.53,.21,.53,.5s-.22,.5-.53,.5h-2.05c-.6,0-.85-.25-.85-.84Z"/><path class="d" d="M59.59,44.72c0,.28-.24,.49-.52,.49h-2.15c-.6,0-.85-.25-.85-.84v-8.1c0-.59,.25-.84,.85-.84h2.15c.28,0,.52,.21,.52,.49s-.24,.49-.52,.49h-1.94v2.93h1.73c.28,0,.52,.21,.52,.49s-.24,.49-.52,.49h-1.73v3.91h1.94c.28,0,.52,.21,.52,.49Z"/></g></g></g></g></svg>