<?xml version="1.0" encoding="UTF-8"?><svg xmlns="http://www.w3.org/2000/svg" xmlns:xlink="http://www.w3.org/1999/xlink" viewBox="0 0 640.62 232.54"><defs><style>.f{fill:#000000;}.g{clip-path:url(#e);}.h{clip-path:url(#d);}.i{fill:none;}</style><clipPath id="d"><rect class="i" x="191.48" width="257.95" height="158.66"/></clipPath><clipPath id="e"><rect class="i" x="185.82" y="10.48" width="269.29" height="161.17"/></clipPath></defs><g id="a"/><g id="b"><g id="c"><g class="h"><g class="g"><g><path class="f" d="M474.43,232.54h-26.15c-3.41,0-6.18-2.77-6.18-6.18v-70.47c0-3.41,2.77-6.18,6.18-6.18h27.58c-3.5-6.02-4.3-13.53-1.5-20.47,3.58-8.87,12.07-14.6,21.64-14.6,1.12,0,2.23,.08,3.34,.24-.69-4.17-.23-8.47,1.39-12.49,2.33-5.78,6.77-10.3,12.51-12.74,2.91-1.24,5.97-1.86,9.12-1.86,7.48,0,14.35,3.56,18.69,9.38,4.31-6.03,11.28-9.72,18.95-9.72,3,0,5.93,.57,8.72,1.7,5.78,2.33,10.3,6.77,12.74,12.51,1.7,3.99,2.24,8.28,1.62,12.47,1.24-.2,2.49-.31,3.76-.31,9.38,0,17.8,5.57,21.47,14.2,3.12,7.35,2.17,15.43-1.84,21.7h27.97c3.41,0,6.18,2.77,6.18,6.18v70.47c0,3.41-2.77,6.18-6.18,6.18h-160.02Z"/><path class="f" d="M32.33,232.54H6.18c-3.41,0-6.18-2.77-6.18-6.18v-70.47c0-3.41,2.77-6.18,6.18-6.18h27.58c-3.5-6.02-4.3-13.53-1.5-20.47,3.58-8.87,12.07-14.6,21.64-14.6,1.12,0,2.23,.08,3.34,.24-.69-4.17-.23-8.47,1.39-12.49,2.33-5.78,6.77-10.3,12.51-12.74,2.91-1.24,5.97-1.86,9.12-1.86,7.48,0,14.35,3.56,18.69,9.38,4.31-6.03,11.28-9.72,18.95-9.72,3,0,5.93,.57,8.72,1.7,5.78,2.33,10.3,6.77,12.74,12.51,1.7,3.99,2.24,8.28,1.62,12.47,1.24-.2,2.49-.31,3.76-.31,9.38,0,17.8,5.57,21.47,14.2,3.12,7.35,2.17,15.43-1.84,21.7h27.97c3.41,0,6.18,2.77,6.18,6.18v70.47c0,3.41-2.77,6.18-6.18,6.18H32.33Z"/><path class="f" d="M377.29,215.91h-20.92c-2.73,0-4.94-2.21-4.94-4.94v-56.37c0-2.73,2.21-4.94,4.94-4.94h22.07c-2.8-4.81-3.44-10.82-1.2-16.38,2.86-7.1,9.66-11.68,17.31-11.68,.9,0,1.79,.06,2.67,.19-.55-3.34-.18-6.78,1.12-9.99,1.86-4.62,5.42-8.24,10.01-10.19,2.32-.99,4.78-1.49,7.29-1.49,5.99,0,11.48,2.85,14.95,7.5,3.45-4.83,9.03-7.78,15.16-7.78,2.4,0,4.75,.46,6.98,1.36,4.62,1.86,8.24,5.42,10.19,10,1.36,3.2,1.79,6.63,1.3,9.98,.99-.16,1.99-.25,3.01-.25,7.5,0,14.24,4.46,17.18,11.36,2.5,5.88,1.74,12.34-1.47,17.36h22.37c2.73,0,4.94,2.21,4.94,4.94v56.37c0,2.73-2.21,4.94-4.94,4.94h-128.01Z"/><path class="f" d="M253.38,232.54h-26.15c-3.41,0-6.18-2.77-6.18-6.18v-70.47c0-3.41,2.77-6.18,6.18-6.18h27.58c-3.5-6.02-4.3-13.53-1.5-20.47,3.58-8.87,12.07-14.6,21.64-14.6,1.12,0,2.23,.08,3.34,.24-.69-4.17-.23-8.47,1.39-12.49,2.33-5.78,6.77-10.3,12.51-12.74,2.91-1.24,5.97-1.86,9.12-1.86,7.48,0,14.35,3.56,18.69,9.38,4.31-6.03,11.28-9.72,18.95-9.72,3,0,5.93,.57,8.72,1.7,5.78,2.33,10.3,6.77,12.74,12.51,1.7,3.99,2.24,8.28,1.62,12.47,1.24-.2,2.49-.31,3.76-.31,9.38,0,17.8,5.57,21.47,14.2,3.12,7.35,2.17,15.43-1.84,21.7h27.97c3.41,0,6.18,2.77,6.18,6.18v70.47c0,3.41-2.77,6.18-6.18,6.18H253.38Z"/><path class="f" d="M156.24,215.91h-20.92c-2.73,0-4.94-2.21-4.94-4.94v-56.37c0-2.73,2.21-4.94,4.94-4.94h22.07c-2.8-4.81-3.44-10.82-1.2-16.38,2.86-7.1,9.66-11.68,17.31-11.68,.9,0,1.79,.06,2.67,.19-.55-3.34-.18-6.78,1.12-9.99,1.86-4.62,5.42-8.24,10.01-10.19,2.32-.99,4.78-1.49,7.29-1.49,5.99,0,11.48,2.85,14.95,7.5,3.45-4.83,9.03-7.78,15.16-7.78,2.4,0,4.75,.46,6.98,1.36,4.62,1.86,8.24,5.42,10.19,10,1.36,3.2,1.79,6.63,1.3,9.98,.99-.16,1.99-.25,3.01-.25,7.5,0,14.24,4.46,17.18,11.36,2.5,5.88,1.74,12.34-1.47,17.36h22.37c2.73,0,4.94,2.21,4.94,4.94v56.37c0,2.73-2.21,4.94-4.94,4.94H156.24Z"/></g></g></g></g></g></svg>