<?xml version="1.0" encoding="UTF-8"?><svg xmlns="http://www.w3.org/2000/svg" viewBox="0 0 89.16 101.21"><defs><style>.d,.e{fill:#fff;}.f{fill:#f5a26c;}.e{opacity:.5;}.g{fill:#ec6756;}</style></defs><g id="a"/><g id="b"><g id="c"><g><g><path class="d" d="M53.54,100.71c-3.5,0-6.84-1.59-9.05-4.28-2.21,2.69-5.55,4.28-9.05,4.28-1.58,0-3.12-.32-4.58-.94-2.88-1.22-5.11-3.5-6.29-6.4-.68-1.69-.96-3.51-.82-5.3-.33,.03-.67,.04-1,.04-4.8,0-9.07-2.88-10.87-7.33-1.28-3.16-1.12-6.63,.4-9.66H3.97c-1.91,0-3.47-1.56-3.47-3.47V33.76c0-1.91,1.56-3.47,3.47-3.47H12.4c-1.6-3.04-1.8-6.67-.51-9.86,1.8-4.45,6.07-7.33,10.87-7.33,.33,0,.67,.01,1,.04-.39-4.98,2.46-9.73,7.1-11.7,1.46-.62,3-.94,4.58-.94,3.51,0,6.84,1.59,9.05,4.28,2.21-2.69,5.55-4.28,9.05-4.28,1.58,0,3.12,.31,4.58,.94,4.65,1.98,7.5,6.73,7.1,11.72,.41-.04,.83-.07,1.24-.07,4.8,0,9.07,2.88,10.87,7.33,1.29,3.2,1.09,6.82-.51,9.86h8.37c1.91,0,3.47,1.56,3.47,3.47v33.9c0,1.91-1.56,3.47-3.47,3.47h-8.26c1.53,3.02,1.68,6.49,.4,9.66-1.8,4.45-6.07,7.33-10.87,7.33-.41,0-.82-.02-1.23-.07,.15,1.8-.13,3.63-.82,5.32-1.17,2.9-3.4,5.18-6.29,6.4-1.46,.62-3,.94-4.58,.94Z"/><path class="f" d="M53.55,1c1.51,0,2.99,.3,4.39,.9,4.75,2.02,7.39,6.96,6.73,11.85,.59-.1,1.19-.15,1.8-.15,4.6,0,8.68,2.76,10.41,7.02,1.4,3.47,.94,7.23-.91,10.18h9.24c1.64,0,2.97,1.33,2.97,2.97v33.9c0,1.64-1.33,2.97-2.97,2.97h-9.11c1.74,2.92,2.15,6.58,.78,9.97-1.72,4.26-5.81,7.02-10.41,7.02h0c-.61,0-1.21-.05-1.8-.15,.26,1.92,.03,3.88-.71,5.72-1.12,2.78-3.26,4.96-6.02,6.13-1.4,.59-2.87,.9-4.39,.9-3.64,0-6.97-1.74-9.05-4.59-2.08,2.85-5.42,4.59-9.05,4.59h0c-1.51,0-2.99-.3-4.39-.9-2.76-1.17-4.89-3.35-6.02-6.13-.74-1.83-.97-3.78-.72-5.68-.51,.07-1.03,.11-1.56,.11-4.6,0-8.68-2.75-10.41-7.02-1.37-3.38-.96-7.05,.78-9.97H3.97c-1.64,0-2.97-1.33-2.97-2.97V33.76c0-1.64,1.33-2.97,2.97-2.97H13.27c-1.85-2.95-2.31-6.71-.91-10.18,1.72-4.26,5.81-7.02,10.41-7.02,.53,0,1.05,.04,1.56,.11-.65-4.88,1.99-9.79,6.73-11.81,1.4-.59,2.87-.9,4.39-.9,3.64,0,6.97,1.74,9.05,4.59,2.08-2.85,5.42-4.59,9.05-4.59m0-1c-3.46,0-6.76,1.48-9.05,4.01-2.3-2.53-5.6-4.01-9.05-4.01-1.65,0-3.25,.33-4.78,.98-4.66,1.98-7.58,6.64-7.43,11.63-.16,0-.31,0-.47,0-5.01,0-9.46,3-11.33,7.64-1.24,3.08-1.16,6.54,.18,9.55H3.97c-2.19,0-3.97,1.78-3.97,3.97v33.9c0,2.19,1.78,3.97,3.97,3.97h7.54c-1.27,2.97-1.31,6.3-.08,9.34,1.88,4.64,6.32,7.64,11.33,7.64,.15,0,.31,0,.46,0-.05,1.68,.25,3.38,.88,4.95,1.22,3.03,3.55,5.4,6.55,6.67,1.52,.65,3.13,.98,4.78,.98,3.46,0,6.76-1.48,9.05-4.01,2.3,2.53,5.6,4.01,9.05,4.01,1.65,0,3.25-.33,4.78-.98,3-1.28,5.33-3.65,6.55-6.67,.64-1.58,.94-3.28,.88-4.96,.23,.01,.47,.02,.7,.02,5.01,0,9.46-3,11.33-7.64,1.23-3.05,1.19-6.37-.08-9.34h7.48c2.19,0,3.97-1.78,3.97-3.97V33.76c0-2.19-1.78-3.97-3.97-3.97h-7.57c1.34-3.01,1.42-6.47,.18-9.55-1.88-4.64-6.32-7.64-11.33-7.64-.23,0-.47,0-.7,.02,.16-4.99-2.77-9.66-7.43-11.64-1.52-.65-3.13-.98-4.78-.98h0Z"/></g><g><g><path class="g" d="M32.08,62.25c0,.93-.35,1.75-1.06,2.46-.71,.71-1.54,1.06-2.5,1.06-1.05,0-2.01-.45-2.89-1.36l-12.1-12.39v10.02c0,1.19-.35,2.13-1.06,2.82-.71,.69-1.67,1.04-2.89,1.04s-2.13-.35-2.82-1.04c-.69-.69-1.04-1.63-1.04-2.82v-22.7c0-1.16,.35-2.09,1.04-2.78,.69-.69,1.63-1.04,2.82-1.04s2.18,.35,2.89,1.04c.71,.69,1.06,1.62,1.06,2.78v9.34l11.93-12.01c.74-.76,1.57-1.15,2.5-1.15s1.75,.35,2.46,1.04c.71,.69,1.06,1.51,1.06,2.44s-.41,1.8-1.23,2.59l-8.7,8.53,9.42,9.68c.74,.71,1.1,1.53,1.1,2.46Z"/><path class="g" d="M35.92,65.03c-.72-.58-1.08-1.45-1.08-2.61v-23.38c0-1.16,.36-2.04,1.08-2.63,.72-.59,1.62-.89,2.69-.89s1.97,.3,2.69,.89c.72,.59,1.08,1.47,1.08,2.63v23.38c0,1.16-.36,2.03-1.08,2.61-.72,.58-1.62,.87-2.69,.87s-1.97-.29-2.69-.87Z"/><path class="g" d="M57.08,62.25c0,.93,.35,1.75,1.06,2.46,.71,.71,1.54,1.06,2.5,1.06,1.05,0,2.01-.45,2.89-1.36l12.1-12.39v10.02c0,1.19,.35,2.13,1.06,2.82,.71,.69,1.67,1.04,2.89,1.04s2.13-.35,2.82-1.04c.69-.69,1.04-1.63,1.04-2.82v-22.7c0-1.16-.35-2.09-1.04-2.78-.69-.69-1.63-1.04-2.82-1.04s-2.18,.35-2.89,1.04c-.71,.69-1.06,1.62-1.06,2.78v9.34l-11.93-12.01c-.74-.76-1.57-1.15-2.5-1.15s-1.75,.35-2.46,1.04c-.71,.69-1.06,1.51-1.06,2.44s.41,1.8,1.23,2.59l8.7,8.53-9.42,9.68c-.74,.71-1.1,1.53-1.1,2.46Z"/><path class="g" d="M47.51,40.38c-.75-.66-1.12-1.55-1.12-2.65s.37-1.98,1.12-2.63c.75-.65,1.76-.98,3.03-.98s2.25,.33,3.01,.98c.76,.65,1.15,1.53,1.15,2.63s-.38,1.99-1.12,2.65c-.75,.67-1.76,1-3.03,1s-2.29-.33-3.03-1Zm.34,24.66c-.72-.58-1.08-1.45-1.08-2.61v-14.6c0-1.16,.36-2.03,1.08-2.61,.72-.58,1.62-.87,2.69-.87s1.97,.29,2.69,.87c.72,.58,1.08,1.45,1.08,2.61v14.6c0,1.16-.36,2.03-1.08,2.61-.72,.58-1.62,.87-2.69,.87s-1.97-.29-2.69-.87Z"/></g><rect class="e" x="9.99" y="37.73" width="1.87" height="24.56" rx=".94" ry=".94"/><rect class="e" x="24.01" y="50.67" width="1.87" height="13.36" rx=".94" ry=".94" transform="translate(-33.24 34.44) rotate(-45)"/><rect class="e" x="65.38" y="36.33" width="1.87" height="13.36" rx=".94" ry=".94" transform="translate(-10.99 59.49) rotate(-45)"/><rect class="e" x="38.85" y="37.73" width="1.87" height="24.56" rx=".94" ry=".94"/><rect class="e" x="79.89" y="37.73" width="1.87" height="24.56" rx=".94" ry=".94"/><rect class="e" x="50.75" y="46.6" width="1.87" height="15.69" rx=".94" ry=".94"/><rect class="e" x="50.75" y="35.93" width="1.87" height="3.82" rx=".94" ry=".94"/></g><path class="f" d="M51.16,31s9.55-10.86,12.87-12.2c3.32-1.34,7.11,.26,8.45,3.59,1.34,3.32-.26,7.11-3.59,8.45-3.32,1.34-17.74,.16-17.74,.16Z"/><path class="f" d="M38.06,31s-9.55-10.86-12.87-12.2c-3.32-1.34-7.11,.26-8.45,3.59-1.34,3.32,.26,7.11,3.59,8.45,3.32,1.34,17.74,.16,17.74,.16Z"/><path class="f" d="M41.9,27.42s-11.03-9.35-12.43-12.65c-1.4-3.3,.14-7.11,3.44-8.51,3.3-1.4,7.11,.14,8.51,3.44,1.4,3.3,.48,17.73,.48,17.73Z"/><path class="f" d="M47.09,27.42s11.03-9.35,12.43-12.65c1.4-3.3-.14-7.11-3.44-8.51-3.3-1.4-7.11,.14-8.51,3.44-1.4,3.3-.48,17.73-.48,17.73Z"/><path class="f" d="M51.16,70.21s9.55,10.86,12.87,12.2c3.32,1.34,7.11-.26,8.45-3.59,1.34-3.32-.26-7.11-3.59-8.45-3.32-1.34-17.74-.16-17.74-.16Z"/><path class="f" d="M38.06,70.21s-9.55,10.86-12.87,12.2c-3.32,1.34-7.11-.26-8.45-3.59-1.34-3.32,.26-7.11,3.59-8.45,3.32-1.34,17.74-.16,17.74-.16Z"/><path class="f" d="M41.9,73.8s-11.03,9.35-12.43,12.65c-1.4,3.3,.14,7.11,3.44,8.51,3.3,1.4,7.11-.14,8.51-3.44,1.4-3.3,.48-17.73,.48-17.73Z"/><path class="f" d="M47.09,73.8s11.03,9.35,12.43,12.65c1.4,3.3-.14,7.11-3.44,8.51-3.3,1.4-7.11-.14-8.51-3.44-1.4-3.3-.48-17.73-.48-17.73Z"/><path class="e" d="M60.04,27.18s4.77-5.43,6.44-6.1c1.66-.67,3.55,.13,4.23,1.79,.67,1.66-.13,3.55-1.79,4.23-1.66,.67-8.87,.08-8.87,.08Z"/><path class="e" d="M33.03,28.74s-4.77-5.43-6.44-6.1c-1.66-.67-3.55,.13-4.23,1.79-.67,1.66,.13,3.55,1.79,4.23,1.66,.67,8.87,.08,8.87,.08Z"/><path class="e" d="M39.94,19.51s-5.52-4.68-6.22-6.33c-.7-1.65,.07-3.56,1.72-4.26,1.65-.7,3.56,.07,4.26,1.72,.7,1.65,.24,8.87,.24,8.87Z"/><path class="e" d="M51.84,18.89s5.52-4.68,6.22-6.33c.7-1.65-.07-3.56-1.72-4.26-1.65-.7-3.56,.07-4.26,1.72-.7,1.65-.24,8.87-.24,8.87Z"/><path class="e" d="M59.2,71.65s4.77,5.43,6.44,6.1c1.66,.67,3.55-.13,4.23-1.79,.67-1.66-.13-3.55-1.79-4.23-1.66-.67-8.87-.08-8.87-.08Z"/><path class="e" d="M34.4,71.65s-4.77,5.43-6.44,6.1c-1.66,.67-3.55-.13-4.23-1.79-.67-1.66,.13-3.55,1.79-4.23,1.66-.67,8.87-.08,8.87-.08Z"/><path class="e" d="M40.87,77.99s-5.52,4.68-6.22,6.33c-.7,1.65,.07,3.56,1.72,4.26,1.65,.7,3.56-.07,4.26-1.72,.7-1.65,.24-8.87,.24-8.87Z"/><path class="e" d="M49.46,77.99s5.52,4.68,6.22,6.33c.7,1.65-.07,3.56-1.72,4.26-1.65,.7-3.56-.07-4.26-1.72-.7-1.65-.24-8.87-.24-8.87Z"/></g></g></g></svg>