<?xml version="1.0" encoding="UTF-8"?><svg xmlns="http://www.w3.org/2000/svg" viewBox="0 0 15.18 114.53"><defs><style>.d{fill:#fff;}</style></defs><g id="a"/><g id="b"><g id="c"><path class="d" d="M10.24,1.4c-.83,.52-1.65,1.05-2.5,1.54-.14,.08-1.83,.98-1.7,1.07,1.72,1.08,3.18,1.85,4.51,3.48,1.29,1.57,2.28,3.42,3,5.32,1.33,3.5,1.83,7.23,1.56,10.96-.23,3.19-1.13,6.91-3.45,9.27-.43,.44-2.89,2.21-3.35,.97-.22-.58,.52-.72,.9-.98,.78-.54,1.31-1.26,1.8-2.08,3.61-6.01,1.46-15.4-2.4-20.71-1.03-1.42-2.29-2.67-3.9-3.43-.35-.17-1.62-.83-1.9-.57-.27,.26,.67,2.25,.79,2.65,.41,1.42,1.12,3.23,1.07,4.72-.02,.67-.25,1.28-1,1.31-.91,.04-1.15-.87-1.41-1.54-.74-1.89-1.15-3.91-1.67-5.87C.1,5.72-.72,4.07,1.27,3.1c1.98-.96,4.16-1.66,6.23-2.41,.58-.21,2.07-.95,2.76-.59,1.01,.53-.26,.92-.02,1.3-.74,.46-.01-.02,0,0Z"/><g><path class="d" d="M12.35,48.82c-.2,.19-.46,.29-.78,.29H5.04c-.3,0-.54-.09-.72-.26s-.26-.41-.26-.7,.09-.51,.26-.69c.18-.18,.42-.27,.72-.27h3.53l-2.52-1.37c-.26-.14-.44-.28-.54-.43-.11-.15-.16-.33-.16-.54s.05-.39,.16-.54c.11-.15,.29-.3,.54-.43l2.45-1.36h-3.46c-.3,0-.53-.09-.71-.27s-.27-.41-.27-.7,.09-.51,.26-.69c.18-.18,.42-.27,.72-.27h6.53c.32,0,.58,.1,.78,.29,.2,.2,.3,.45,.3,.75,0,.22-.06,.41-.19,.59-.12,.18-.3,.32-.53,.44l-4.15,2.21,4.15,2.2c.48,.25,.72,.58,.72,1.01,0,.3-.1,.55-.3,.74Z"/><path class="d" d="M4.41,51.79c.25-.49,.61-.87,1.07-1.14,.46-.27,1.01-.4,1.63-.4s1.17,.13,1.63,.4c.46,.27,.81,.65,1.06,1.13,.25,.49,.37,1.06,.37,1.72s-.12,1.23-.37,1.72c-.25,.49-.6,.87-1.06,1.13-.46,.27-1,.4-1.63,.4s-1.17-.13-1.63-.4c-.46-.27-.82-.65-1.07-1.13-.25-.49-.38-1.06-.38-1.72s.13-1.22,.38-1.71Zm2.71,2.85c.99,0,1.49-.38,1.49-1.14s-.5-1.14-1.49-1.14-1.49,.38-1.49,1.14,.5,1.14,1.49,1.14Z"/><path class="d" d="M9.55,63.27c-.42,.34-1.06,.52-1.91,.52h-2.59c-.3,0-.54-.1-.72-.29-.18-.19-.26-.45-.26-.78s.09-.59,.26-.78c.18-.19,.42-.29,.72-.29h2.5c.35,0,.61-.06,.77-.19,.16-.12,.24-.31,.24-.56,0-.32-.1-.57-.31-.76-.2-.19-.48-.28-.82-.28h-2.38c-.3,0-.54-.1-.72-.29s-.26-.45-.26-.78,.09-.59,.26-.78c.18-.19,.42-.29,.72-.29h4.15c.28,0,.51,.1,.69,.3,.18,.2,.27,.46,.27,.78,0,.3-.08,.55-.25,.73s-.39,.27-.66,.27c.3,.21,.54,.48,.7,.8s.24,.69,.24,1.09c0,.7-.21,1.23-.63,1.57Z"/><path class="d" d="M4.35,68.85c.2-.2,.46-.29,.8-.29h6.42c.33,0,.58,.09,.76,.26,.18,.18,.26,.43,.26,.76v3.07c0,.94-.24,1.66-.71,2.18-.48,.52-1.14,.78-1.99,.78s-1.5-.26-1.98-.79c-.48-.52-.72-1.25-.72-2.18v-1.88h-2.04c-.34,0-.6-.1-.8-.3-.2-.2-.29-.47-.29-.82s.1-.6,.29-.8Zm4.49,3.5c0,.41,.08,.71,.25,.91,.17,.2,.43,.29,.78,.29,.7,0,1.04-.4,1.04-1.2v-1.58h-2.08v1.58Z"/><path class="d" d="M4.41,77.55c.25-.49,.61-.87,1.07-1.14,.46-.27,1.01-.4,1.63-.4s1.17,.13,1.63,.4c.46,.27,.81,.65,1.06,1.13,.25,.49,.37,1.06,.37,1.72s-.12,1.23-.37,1.72c-.25,.49-.6,.87-1.06,1.13-.46,.27-1,.4-1.63,.4s-1.17-.13-1.63-.4c-.46-.27-.82-.65-1.07-1.13-.25-.49-.38-1.06-.38-1.72s.13-1.22,.38-1.71Zm2.71,2.85c.99,0,1.49-.38,1.49-1.14s-.5-1.14-1.49-1.14-1.49,.38-1.49,1.14,.5,1.14,1.49,1.14Z"/><path class="d" d="M12.38,89.43c-.18,.2-.41,.31-.69,.31H5.04c-.3,0-.54-.1-.72-.29-.18-.19-.26-.45-.26-.77,0-.3,.08-.54,.23-.73,.16-.19,.37-.29,.64-.32-.28-.17-.5-.41-.66-.74-.16-.32-.24-.68-.24-1.07,0-.5,.13-.95,.39-1.35,.26-.4,.62-.71,1.1-.93,.47-.22,1.01-.34,1.62-.34s1.14,.11,1.6,.33,.81,.53,1.06,.92c.25,.4,.37,.85,.37,1.36,0,.38-.08,.72-.23,1.04-.15,.32-.36,.56-.61,.74h2.39c.28,0,.5,.09,.67,.28,.17,.19,.25,.44,.25,.76s-.09,.58-.27,.79Zm-6.37-2.09c.26,.2,.62,.3,1.1,.3s.83-.1,1.09-.3,.38-.49,.38-.86-.12-.65-.37-.85-.6-.3-1.07-.3-.85,.1-1.12,.31-.4,.49-.4,.85,.13,.66,.38,.86Z"/><path class="d" d="M5.67,100.41c-.14,.17-.36,.26-.65,.26s-.53-.09-.67-.26c-.14-.17-.22-.43-.22-.79v-4.38c0-.29,.09-.52,.26-.68,.17-.17,.39-.25,.65-.25,.34,0,.66,.14,.94,.41l2.65,2.54c.55,.53,1.06,.79,1.52,.79,.27,0,.48-.08,.62-.23s.22-.38,.22-.67c0-.23-.03-.45-.1-.64-.07-.2-.17-.42-.29-.68l-.12-.24s-.05-.09-.1-.19c-.05-.09-.09-.17-.11-.25-.02-.07-.04-.15-.04-.23,0-.2,.09-.37,.27-.5,.18-.14,.39-.2,.64-.2,.18,0,.32,.03,.43,.08,.11,.05,.22,.15,.31,.29,.26,.38,.46,.8,.6,1.27s.22,.93,.22,1.39c0,.59-.1,1.11-.29,1.56-.2,.45-.48,.79-.84,1.04-.36,.24-.78,.37-1.25,.37s-.93-.1-1.34-.29c-.4-.2-.85-.53-1.35-1l-1.74-1.7v2.41c0,.35-.07,.61-.21,.79Z"/><path class="d" d="M9.59,110.66c-.39,.35-1.04,.53-1.96,.53h-2.59c-.33,0-.57-.1-.74-.31-.16-.2-.25-.46-.25-.76s.08-.56,.25-.76,.41-.31,.74-.31h2.64c.32,0,.54-.06,.67-.17,.13-.11,.19-.28,.19-.49,0-.28-.1-.5-.3-.67-.2-.17-.48-.25-.83-.25h-2.38c-.33,0-.57-.1-.74-.3s-.25-.46-.25-.77,.08-.56,.25-.76c.16-.2,.41-.31,.74-.31h2.64c.32,0,.54-.06,.67-.17,.13-.11,.19-.28,.19-.49,0-.28-.1-.5-.3-.67-.2-.16-.48-.25-.83-.25h-2.38c-.33,0-.57-.1-.74-.31s-.25-.46-.25-.76,.08-.56,.25-.76c.16-.2,.41-.31,.74-.31h4.15c.31,0,.55,.11,.71,.32s.25,.47,.25,.76c0,.28-.07,.51-.22,.7-.15,.19-.36,.29-.64,.29,.59,.39,.89,.99,.89,1.8,0,.86-.35,1.43-1.04,1.72,.32,.2,.57,.47,.76,.8s.28,.72,.28,1.14c0,.65-.19,1.15-.58,1.5Z"/><path class="d" d="M4.3,112.7c.16-.2,.41-.31,.74-.31h6.61c.33,0,.58,.1,.74,.31,.17,.2,.25,.46,.25,.76s-.08,.56-.25,.76-.42,.31-.74,.31H5.04c-.33,0-.57-.1-.74-.31s-.25-.46-.25-.76,.08-.56,.25-.76Z"/></g></g></g></svg>